<?xml version="1.0" encoding="UTF-8" standalone="no"?>
<!-- Created with Inkscape (http://www.inkscape.org/) -->

<svg
   xmlns:dc="http://purl.org/dc/elements/1.1/"
   xmlns:cc="http://creativecommons.org/ns#"
   xmlns:rdf="http://www.w3.org/1999/02/22-rdf-syntax-ns#"
   xmlns:svg="http://www.w3.org/2000/svg"
   xmlns="http://www.w3.org/2000/svg"
   xmlns:xlink="http://www.w3.org/1999/xlink"
   xmlns:sodipodi="http://sodipodi.sourceforge.net/DTD/sodipodi-0.dtd"
   xmlns:inkscape="http://www.inkscape.org/namespaces/inkscape"
   width="744.09448819"
   height="1052.3622047"
   id="svg2"
   version="1.1"
   inkscape:version="0.48.0 r9654"
   sodipodi:docname="New document 1">
  <defs
     id="defs4">
    <linearGradient
       inkscape:collect="always"
       id="linearGradient5214">
      <stop
         style="stop-color:#0000ff;stop-opacity:1;"
         offset="0"
         id="stop5216" />
      <stop
         style="stop-color:#0000ff;stop-opacity:0;"
         offset="1"
         id="stop5218" />
    </linearGradient>
    <radialGradient
       inkscape:collect="always"
       xlink:href="#linearGradient5214"
       id="radialGradient5226"
       gradientUnits="userSpaceOnUse"
       gradientTransform="matrix(1,0,0,0.27747252,0,340.32444)"
       cx="289.91379"
       cy="471.01938"
       fx="289.91379"
       fy="471.01938"
       r="183.84776" />
    <filter
       inkscape:collect="always"
       id="filter5257">
      <feGaussianBlur
         inkscape:collect="always"
         stdDeviation="3.522907"
         id="feGaussianBlur5259" />
    </filter>
    <filter
       inkscape:collect="always"
       id="filter5353"
       x="-0.028894569"
       width="1.0577891"
       y="-0.14168146"
       height="1.2833629">
      <feGaussianBlur
         inkscape:collect="always"
         stdDeviation="4.9459375"
         id="feGaussianBlur5355" />
    </filter>
    <radialGradient
       inkscape:collect="always"
       xlink:href="#linearGradient5214"
       id="radialGradient5493"
       gradientUnits="userSpaceOnUse"
       gradientTransform="matrix(1,0,0,0.27747252,0,340.32444)"
       cx="289.91379"
       cy="471.01938"
       fx="289.91379"
       fy="471.01938"
       r="183.84776" />
    <radialGradient
       inkscape:collect="always"
       xlink:href="#linearGradient5214"
       id="radialGradient5495"
       gradientUnits="userSpaceOnUse"
       gradientTransform="matrix(1,0,0,0.27747252,0,340.32444)"
       cx="289.91379"
       cy="471.01938"
       fx="289.91379"
       fy="471.01938"
       r="183.84776" />
    <radialGradient
       inkscape:collect="always"
       xlink:href="#linearGradient5214"
       id="radialGradient5514"
       gradientUnits="userSpaceOnUse"
       gradientTransform="matrix(1,0,0,0.27747252,0,340.32444)"
       cx="289.91379"
       cy="471.01938"
       fx="289.91379"
       fy="471.01938"
       r="183.84776" />
    <radialGradient
       inkscape:collect="always"
       xlink:href="#linearGradient5214"
       id="radialGradient5516"
       gradientUnits="userSpaceOnUse"
       gradientTransform="matrix(1,0,0,0.27747252,0,340.32444)"
       cx="289.91379"
       cy="471.01938"
       fx="289.91379"
       fy="471.01938"
       r="183.84776" />
  </defs>
  <sodipodi:namedview
     id="base"
     pagecolor="#ffffff"
     bordercolor="#666666"
     borderopacity="1.0"
     inkscape:pageopacity="0.0"
     inkscape:pageshadow="2"
     inkscape:zoom="1.4"
     inkscape:cx="429.19599"
     inkscape:cy="347.53444"
     inkscape:document-units="px"
     inkscape:current-layer="g5413"
     showgrid="false"
     inkscape:window-width="1680"
     inkscape:window-height="987"
     inkscape:window-x="-4"
     inkscape:window-y="-4"
     inkscape:window-maximized="1" />
  <metadata
     id="metadata7">
    <rdf:RDF>
      <cc:Work
         rdf:about="">
        <dc:format>image/svg+xml</dc:format>
        <dc:type
           rdf:resource="http://purl.org/dc/dcmitype/StillImage" />
        <dc:title></dc:title>
      </cc:Work>
    </rdf:RDF>
  </metadata>
  <g
     inkscape:label="Layer 1"
     inkscape:groupmode="layer"
     id="layer1">
    <g
       style="font-size:99.04409027px;font-style:normal;font-variant:normal;font-weight:normal;font-stretch:normal;line-height:125%;letter-spacing:0px;word-spacing:0px;fill:#000000;fill-opacity:1;stroke:none;font-family:Blackadder ITC;-inkscape-font-specification:Blackadder ITC"
       id="text2985">
      <g
         id="g5413"
         inkscape:export-xdpi="90"
         inkscape:export-ydpi="90">
        <path
           sodipodi:type="arc"
           style="opacity:0.8699552;fill:#000000;filter:url(#filter5257)"
           id="path5241"
           sodipodi:cx="289.91379"
           sodipodi:cy="471.01938"
           sodipodi:rx="183.84776"
           sodipodi:ry="51.012703"
           d="m 473.76155,471.01938 a 183.84776,51.012703 0 1 1 -367.69553,0 183.84776,51.012703 0 1 1 367.69553,0 z"
           transform="matrix(1.1688802,0,0,1.1688802,7.3043506,51.47378)" />
        <g
           transform="translate(28.546772,53.275582)"
           id="g5222">
          <path
             sodipodi:type="arc"
             style="opacity:0.50416667;fill:#0000ff"
             id="path3008"
             sodipodi:cx="289.91379"
             sodipodi:cy="471.01938"
             sodipodi:rx="183.84776"
             sodipodi:ry="51.012703"
             d="m 473.76155,471.01938 c 0,28.17354 -82.31145,51.0127 -183.84776,51.0127 -101.53632,0 -183.84777,-22.83916 -183.84777,-51.0127 0,-28.17354 82.31145,-51.0127 183.84777,-51.0127 101.53631,0 183.84776,22.83916 183.84776,51.0127 z"
             transform="matrix(1.1373626,0,0,1.1373626,-18.105043,3.0435845)" />
          <path
             d="m 473.76155,471.01938 c 0,28.17354 -82.31145,51.0127 -183.84776,51.0127 -101.53632,0 -183.84777,-22.83916 -183.84777,-51.0127 0,-28.17354 82.31145,-51.0127 183.84777,-51.0127 101.53631,0 183.84776,22.83916 183.84776,51.0127 z"
             sodipodi:ry="51.012703"
             sodipodi:rx="183.84776"
             sodipodi:cy="471.01938"
             sodipodi:cx="289.91379"
             id="path3010"
             style="fill:url(#radialGradient5226);fill-opacity:1"
             sodipodi:type="arc"
             transform="matrix(1.1373626,0,0,1.1373626,-18.105043,3.0435845)" />
          <path
             transform="matrix(1.1373626,0,0,1.1373626,-18.105043,3.0435845)"
             sodipodi:type="arc"
             style="fill:url(#radialGradient5226);fill-opacity:1"
             id="path5321"
             sodipodi:cx="289.91379"
             sodipodi:cy="471.01938"
             sodipodi:rx="183.84776"
             sodipodi:ry="51.012703"
             d="m 473.76155,471.01938 c 0,28.17354 -82.31145,51.0127 -183.84776,51.0127 -101.53632,0 -183.84777,-22.83916 -183.84777,-51.0127 0,-28.17354 82.31145,-51.0127 183.84777,-51.0127 101.53631,0 183.84776,22.83916 183.84776,51.0127 z" />
        </g>
        <g
           style="fill:#000000"
           id="g5297"
           transform="matrix(0.91993455,0,0,0.91993455,47.723409,97.675757)">
          <path
             style="fill:#000000"
             inkscape:connector-curvature="0"
             id="path5299"
             d="m 246.58166,517.02946 -0.26085,0.6889 -1.79041,1.14179 -1.25951,2.23235 -0.28277,2.43244 -0.6308,1.09202 -0.30769,1.85263 -0.6474,0.70548 -0.31185,1.75601 -1.01733,1.10861 0.0291,0.67645 -1.31968,0.83115 -0.35748,0.69303 -1.04638,0.43217 -0.30918,0.69096 c -0.55498,0.60474 -1.37727,0.99503 -2.46683,1.17086 l -0.37408,0.3065 0.0166,0.38653 c -1.03084,0.0443 -2.32018,0.45463 -3.86803,1.23102 -1.26363,0.63515 -2.51107,1.26957 -3.74234,1.90329 l -4.54178,0.19501 -1.54079,-2.0637 -0.28991,0.0125 0.21525,-1.75185 -0.79677,-2.77334 c 0.36987,-0.40308 1.21353,-0.85883 2.53102,-1.36722 1.31733,-0.50832 2.22037,-0.70844 2.70915,-0.60039 l 0.72207,1.03393 -0.19445,2.23502 0.77601,2.29017 0.96634,-0.0415 c 1.54784,-0.77638 3.09507,-1.56891 4.6417,-2.37757 2.36458,-1.2955 3.70471,-2.40184 4.02039,-3.319 l 0.28991,-0.0125 c 0.54831,-1.50795 1.4703,-3.70967 2.76597,-6.60516 -0.0665,-1.54609 -0.29283,-3.81144 -0.67905,-6.79608 -1.30058,-0.97676 -2.88772,-1.48949 -4.76142,-1.53818 l -3.93708,0.74992 -0.65985,0.41558 -0.35749,0.69304 c -1.56044,0.48656 -2.89989,1.609 -4.01833,3.36732 l -0.76062,0.3231 0.0166,0.38653 c -1.39979,1.2219 -2.27789,2.56655 -2.63433,4.03399 l -1.71036,0.75113 c -0.6852,0.57806 -1.72832,1.46188 -3.12935,2.65147 -0.42752,0.567 -1.10159,1.4027 -2.02221,2.50712 l -5.34751,6.23195 c -0.60833,0.86519 -1.49681,1.96825 -2.66546,3.30923 l -2.12594,0.0913 -1.42046,0.73867 -0.59553,1.91341 0.43218,1.04637 -1.42047,0.73867 c -0.33817,1.14402 -1.01797,2.22201 -2.03941,3.23396 -0.8996,0.84541 -1.79845,1.70691 -2.69657,2.58448 -0.46978,1.08513 -1.56854,2.5522 -3.29625,4.40125 l -0.77306,0.0332 c -1.27823,1.79753 -2.5831,3.72525 -3.9146,5.78317 l -2.20184,0.5786 -1.29893,1.31433 -0.95302,2.60643 c -0.46522,0.4395 -1.0146,1.17305 -1.64812,2.20063 -0.63359,1.02759 -1.18297,1.76113 -1.64813,2.20062 l -0.34089,1.07957 -0.38654,0.0166 -0.24426,1.07541 -1.40386,1.12522 -0.59198,3.12339 c -0.3755,0.27428 -1.78727,0.46399 -4.23529,0.5691 -0.61894,-0.13481 -0.9788,-0.24841 -1.07957,-0.3409 l 0.9883,-1.78504 -0.0456,-1.06297 c -0.7561,-0.32252 -1.72065,-0.99106 -2.89366,-2.00562 l -0.0581,-1.35287 c 1.94728,-1.24535 3.56514,-1.89568 4.85362,-1.95102 0.87699,-0.61852 1.42084,-1.48089 1.63154,-2.58716 l -0.029,-0.67643 c 1.30011,-3.54103 1.92736,-5.84305 1.88175,-6.90603 -0.003,-0.0644 -0.15895,-1.44534 -0.46832,-4.1428 l 0.87506,-2.16744 c 0.13515,-1.36115 0.18787,-3.13828 0.15833,-5.33144 l 0.66399,-0.31895 c 0.7936,-1.80893 1.20969,-3.39191 1.24827,-4.74897 l -0.47782,-2.10934 -1.10861,-1.01733 c 0.7936,-1.80894 1.25682,-3.79732 1.38967,-5.9652 l 1.65228,-2.104 1.50879,-0.93608 c -0.2514,-1.34453 -0.37845,-2.04903 -0.38118,-2.11349 -0.008,-0.19323 0.063,-0.77722 0.21525,-1.75186 l 1.57223,-1.7133 0.76806,-2.40488 2.3453,-1.74649 -0.75112,-1.71037 -0.2899,0.0125 -0.12448,-2.89901 c 0.21893,-0.91292 0.49677,-1.95751 0.83357,-3.13378 -1.92027,0.37295 -4.34343,1.05787 -7.26948,2.05475 l 0.0166,0.38654 -2.09689,0.76771 -3.54372,-0.23511 c -1.26636,0.57075 -2.15721,0.86717 -2.67256,0.88924 -3.15672,0.1356 -5.55141,-0.0198 -7.18408,-0.46607 l -0.75647,0.41973 -3.86535,0.16596 c -1.19182,0.0512 -2.8595,-0.45804 -5.003,-1.5278 l -1.21502,-2.36813 0.15299,-3.20135 c 0.75964,-1.09748 2.18376,-2.12675 4.27237,-3.0878 l 0.2733,-0.39899 c 2.34905,-0.90755 4.80994,-1.465 7.38271,-1.67235 l 0.64532,-0.75379 c 1.80339,0.66486 3.59092,0.95921 5.36257,0.88308 0.32208,-0.0138 0.78707,-0.0821 1.39496,-0.20512 0.60784,-0.12289 1.08893,-0.1919 1.44328,-0.20718 0.25766,-0.011 1.55441,0.12693 3.89025,0.41384 l 1.69999,-0.99272 c 1.00226,0.79607 3.24765,1.23213 6.73618,1.30816 l 1.09617,0.72744 c 0.92579,-0.23331 2.12728,-0.059 3.60449,0.52292 l 2.21722,2.03466 c 0.99297,-0.17165 2.02531,-0.55482 3.09703,-1.1495 1.85892,-1.04787 2.80381,-1.58865 2.83469,-1.62229 0.94831,-0.46018 2.27263,-0.80748 3.97297,-1.0419 2.24505,-0.32223 3.6071,-0.54206 4.08618,-0.65951 0.66531,-0.28667 1.68086,-0.68525 3.04664,-1.19575 -0.0967,0.004 0.50909,-0.16701 1.81737,-0.51368 0.41868,-0.0179 1.01735,0.021 1.79602,0.11649 0.93959,0.0888 1.52285,0.14442 1.74978,0.16693 l 1.49514,1.00074 1.4898,3.13081 -0.61835,1.38192 c -2.33035,-0.158 -3.30221,-0.24536 -2.9156,-0.26208 0.48309,-0.0207 -0.42939,0.14759 -2.73747,0.5048 l -2.20063,-1.64813 c -1.03636,-0.0843 -1.8444,-0.11436 -2.42414,-0.0895 -0.41879,0.018 -1.16287,0.16294 -2.23221,0.43469 -1.06945,0.27188 -1.86321,0.38664 -2.38131,0.34428 l -0.37409,0.3065 c -2.48071,0.84879 -5.16156,1.54478 -8.04254,2.08792 l 0.0332,0.77308 c 0.0332,0.77312 0.42333,1.78097 1.17055,3.0235 0.74712,1.24268 1.15134,2.20151 1.21264,2.8765 -0.51445,0.79664 -1.63068,2.23221 -3.34871,4.3067 -1.17135,3.53556 -1.62322,6.54 -1.35562,9.0133 -0.63222,1.05985 -1.28555,2.37873 -1.95998,3.95663 l 0.73453,1.32383 0.12033,2.80238 -0.6142,1.47854 0.0166,0.38654 -0.38653,0.0166 c -0.4196,1.50249 -0.94961,2.68699 -1.59004,3.5535 l 0.38326,2.16181 -0.27331,0.39898 0.0581,1.35287 -0.97169,2.17158 -0.38654,0.0166 c -1.72624,4.14024 -3.33009,7.37162 -4.8116,9.69416 l -0.3077,1.85264 c 0.33354,-0.49838 0.75822,-1.12975 1.27404,-1.89413 l 2.08445,-1.05763 -0.0166,-0.38653 c 0.69063,-0.44916 1.3569,-1.0909 1.99879,-1.92525 1.10286,-1.37043 1.66972,-2.07245 1.7006,-2.10607 0.43846,-0.30924 1.02973,-0.81868 1.7738,-1.52834 0.53687,-1.02342 1.51785,-2.22727 2.94291,-3.61158 1.04119,-1.30324 1.62367,-2.39318 1.74743,-3.26983 l 0.28991,-0.0125 c 0.37996,-0.91988 1.55212,-2.18034 3.51648,-3.78144 2.15199,-1.73817 3.45507,-2.95587 3.90925,-3.65308 0.3837,-0.081 0.75987,-0.33916 1.12848,-0.77454 0.58291,-0.70267 0.89051,-1.05472 0.92277,-1.05615 0.65702,-0.47996 1.3141,-0.95996 1.97123,-1.44 0.78171,-0.58213 1.2708,-1.21627 1.46729,-1.90243 l 0.65985,-0.41558 0.61835,-1.38191 c 0.34457,-0.24065 0.81253,-0.61572 1.40386,-1.12521 l 3.1003,-3.32791 0.24427,-1.07542 c 0.27876,-0.27008 0.74673,-0.64516 1.40386,-1.1252 0.65701,-0.47996 1.12496,-0.85503 1.40387,-1.12522 l 0.67643,-0.029 1.32176,-0.78285 0.65274,-2.83557 1.32382,-0.73452 -0.0166,-0.38654 c 1.4783,-1.64468 3.20081,-2.86424 5.16756,-3.6587 0.95104,-0.39576 2.96029,-0.94995 6.02776,-1.66259 0.38092,-0.14537 0.9377,-0.33063 1.67035,-0.55577 1.09647,-0.0147 2.73509,-0.1819 4.91586,-0.50151 l 1.76845,0.60175 3.04839,3.35434 0.0788,1.83604 z m -58.35512,-7.36921 -0.35214,-1.43706 -1.10861,-1.01733 c -2.48682,-0.79674 -4.50327,-1.16195 -6.04938,-1.09562 l -0.66399,0.31894 c -1.16794,-0.14336 -1.78409,-0.21375 -1.84849,-0.21108 -0.41878,0.018 -1.06091,0.094 -1.92645,0.22793 -0.86558,0.13406 -1.52383,0.21071 -1.97476,0.23001 -0.96637,0.0416 -2.48054,-0.087 -4.54252,-0.38577 -2.06203,-0.29864 -3.59232,-0.42657 -4.59084,-0.38375 -0.78732,0.45338 -2.30581,1.16399 -4.55543,2.13183 l -1.858,1.82239 1.34752,2.07201 1.07542,0.24426 0.70963,0.74403 c 1.55442,0.12693 2.39606,0.18761 2.52493,0.18198 0.22546,-0.01 0.5777,-0.0732 1.05674,-0.19059 0.479,-0.11735 0.83125,-0.18084 1.05674,-0.19059 0.35431,-0.0151 0.87176,0.011 1.55237,0.0785 0.68057,0.0676 1.19802,0.0939 1.55237,0.0785 l 3.57545,-0.15352 c 0.32208,-0.0137 0.81123,-0.0832 1.46744,-0.20823 0.65615,-0.12496 1.11308,-0.19295 1.3708,-0.20407 2.66659,-0.27579 4.38367,-0.49473 5.15124,-0.65684 1.66388,-0.32954 3.33076,-0.96585 5.00066,-1.90891 z" />
          <path
             inkscape:connector-curvature="0"
             id="path5301"
             style="fill:#000000"
             d="m 248.91365,544.90797 -0.3575,0.69303 -0.65984,0.41557 0.0166,0.38655 -2.78992,0.41022 -0.35335,0.78967 0.0415,0.96633 -0.2733,0.39898 0.0456,1.06298 -0.38653,0.0166 0.0166,0.38654 -0.55076,0.70133 -0.15594,0.878 -0.74817,0.613 0.31895,0.66399 c -0.2678,0.52784 -0.62065,1.70473 -1.05855,3.53068 l -1.37482,1.80164 0.38653,-0.0166 0.0166,0.38653 c -1.03257,0.7543 -1.83895,1.51501 -2.41912,2.28214 l -0.16837,0.58809 0.21402,0.47487 -0.24942,3.20553 -0.28991,0.0125 0.0291,0.67645 -0.63077,1.09201 0.31893,0.66399 1.07542,0.24426 c 0.79736,-0.97007 2.06734,-1.83137 3.80993,-2.58388 l 0.62545,1.03807 -0.83918,1.87546 c -1.3786,0.96277 -2.52063,2.17355 -3.42608,3.63233 -1.9092,0.63058 -3.18796,0.91138 -3.83631,0.84241 l -0.0125,-0.28991 -1.06297,0.0456 c -0.64384,-0.71457 -1.37876,-1.29617 -2.20478,-1.74475 0.0326,-0.74362 -0.10834,-1.77023 -0.42267,-3.07984 l -0.80626,-0.73987 -0.28991,0.0125 c -1.42778,1.31986 -2.22518,2.28994 -2.39215,2.91025 l -1.72281,0.46122 -0.63079,1.09201 -1.99611,0.8602 -1.22452,-0.33466 -1.1513,0.24306 c -1.22364,-0.68968 -2.27238,-1.06418 -3.14623,-1.12348 l -1.39852,-1.00488 c -1.06038,-2.14886 -1.61131,-3.70647 -1.65281,-4.6728 -0.0222,-0.51538 0.079,-1.16514 0.30355,-1.94929 l 0.28991,-0.0125 c 0.14169,-0.45787 0.33191,-1.28893 0.57064,-2.49321 l -0.3231,-0.76062 -0.0166,-0.38653 c -0.0139,-0.32211 0.16742,-0.79782 0.54379,-1.42713 0.37636,-0.62928 0.57373,-1.10569 0.59212,-1.4292 1.87458,-1.43584 2.94843,-3.48273 3.22157,-6.14066 0.65706,-0.47998 1.16779,-0.98596 1.53221,-1.51797 1.14299,-0.4363 1.96666,-0.79437 2.47099,-1.07421 l 0.38653,-0.0166 c 0.67268,-0.86789 1.44753,-1.61111 2.32456,-2.22967 l 0.35334,-0.78966 3.14327,-1.19989 2.81897,0.26624 1.09202,0.63079 1.35288,-0.0581 1.39141,-1.41512 1.35287,-0.0581 1.86509,0.59761 1.38459,-0.4467 0.78967,0.35335 0.31894,0.66398 2.50004,-0.39778 1.02978,-0.81871 0.69303,0.3575 1.04637,-0.43218 c 0.30231,0.27747 0.54853,0.75097 0.73867,1.42046 z m -10.9057,1.92043 -2.15913,-0.68179 c -1.27326,0.40967 -2.42733,0.58831 -3.46222,0.53591 l -2.46684,1.17084 -1.29478,1.41097 c -0.0744,0.51955 -0.57988,2.09024 -1.51608,4.71206 -0.93624,2.62187 -1.49822,4.00136 -1.68594,4.13849 l -0.14762,1.07127 -0.92899,0.91119 -0.16423,0.68473 0.22231,0.66814 -0.99865,1.54347 0.0539,1.25623 -0.5549,0.6047 0.0415,0.96634 -0.35749,0.69303 0.0166,0.38654 -0.99807,0.4301 0.0581,1.35287 0.3065,0.37409 1.52687,0.61213 c 0.76199,-0.29088 1.89117,-1.04932 3.38753,-2.27532 l 0.38654,-0.0166 1.03393,-0.72208 c 0.33217,-0.53059 0.88154,-1.26413 1.64812,-2.20062 l -0.0125,-0.28992 0.65985,-0.41557 c 0.6533,-1.31887 1.63536,-3.24887 2.94618,-5.78999 l -0.0166,-0.38654 1.01732,-1.10861 c 0.051,-1.0671 0.41993,-2.24469 1.10687,-3.53276 -0.0741,-0.22269 -0.004,-0.83884 0.21109,-1.84848 l 0.76062,-0.32309 -0.0166,-0.38654 -0.20987,-0.37824 c 0.17388,-0.45923 0.49916,-1.15088 0.97583,-2.07495 l 0.28992,-0.0125 z" />
          <path
             inkscape:connector-curvature="0"
             id="path5303"
             style="fill:#000000"
             d="m 284.96097,545.68369 -0.27331,0.39899 0.0768,1.78772 -0.36993,0.40312 -0.69633,1.82092 0.31895,0.66399 -0.36994,0.40313 c -0.0645,0.74507 -0.26217,1.78617 -0.59198,3.12341 l 0.21403,0.47486 c -0.60693,0.89738 -1.30788,2.23444 -2.10287,4.01117 -0.82034,1.9392 -1.2139,3.29533 -1.18067,4.06839 l -0.67912,1.09409 0.25344,1.39289 c 1.373,-1.09161 2.3924,-2.15191 3.05821,-3.18089 l 1.23341,-0.58543 1.51443,0.32224 c -0.0998,0.68197 -0.65426,1.6739 -1.66325,2.97577 -1.16183,1.50206 -1.90467,2.61502 -2.22853,3.33887 l -0.65777,0.4639 0.0125,0.2899 -2.30322,1.59948 c -1.06715,-0.051 -2.31676,-0.59434 -3.74884,-1.63006 -0.17352,-0.28299 -0.55985,-0.63751 -1.15899,-1.06356 l -0.52882,-1.04223 -0.0477,-1.11129 -0.41557,-0.65983 0.25464,-0.83383 c -0.0949,-0.70588 -0.14236,-1.05883 -0.14226,-1.05883 -0.0581,-1.35287 0.54443,-3.29078 1.80763,-5.81373 1.26314,-2.52291 1.80561,-4.73254 1.62741,-6.62887 0.5944,-1.18725 1.00061,-2.62458 1.21862,-4.31204 l -1.03125,-0.34297 -0.36993,0.40313 0.0125,0.2899 -2.10995,1.59118 0.0166,0.38653 -1.38874,0.35007 0.0166,0.38654 c -1.04779,0.39998 -1.75248,0.89816 -2.11409,1.49454 l 0.0331,0.77306 c -0.40633,0.30791 -1.24955,0.58614 -2.52968,0.83472 l 0.0291,0.67643 -0.67644,0.0291 -0.32163,0.40106 -0.38653,0.0166 -0.35748,0.69303 0.0353,0.82139 -1.05053,0.33554 0.0291,0.67645 -0.48376,1.1341 -0.024,1.69524 c -0.3925,0.63 -0.7365,1.63709 -1.03203,3.02127 -0.29555,1.38421 -0.62345,2.39061 -0.9837,3.0192 -0.59543,0.41282 -1.19381,1.13233 -1.79515,2.15854 -0.69108,1.19141 -1.22227,1.97258 -1.59358,2.3435 -1.14855,0.30748 -2.90358,0.77008 -5.26507,1.38782 l -1.22867,-0.43132 -1.67034,0.55579 -1.88998,-1.17741 -0.9023,-1.84909 0.31392,-1.70769 1.0947,-0.43424 c 1.01929,0.44029 1.86004,0.85598 2.52224,1.24707 l 1.77528,-0.36667 1.17474,-0.82493 0.20074,-2.09007 0.37408,-0.3065 c -0.082,-1.15821 0.003,-2.19451 0.25387,-3.10887 0.44444,-0.92264 1.07751,-2.33746 1.89922,-4.24446 0.25572,-1.55995 0.88297,-3.86196 1.88174,-6.90602 l -0.33762,-1.09884 0.25672,-0.78552 -0.70549,-0.64739 -1.09469,0.43425 0.0125,0.2899 -1.43291,0.44877 -0.98561,0.72001 c -1.43983,0.28773 -2.6521,0.61408 -3.63681,0.97905 l -1.823,-0.74462 -0.43217,-1.04638 0.35749,-0.69303 c 3.41715,-0.0822 6.97778,-1.33224 10.6819,-3.75026 l 0.77307,-0.0331 2.29492,-1.79275 1.19962,-0.24512 1.08371,0.43752 c 1.47952,1.38868 2.1266,2.5549 1.94124,3.49868 l -0.65982,0.41559 0.0311,0.72475 -0.67912,1.0941 c 0.0755,0.25494 0.0311,0.72477 -0.13312,1.40949 l 0.22646,0.76476 0.74136,0.35541 c 1.20602,-0.47128 2.49556,-1.25273 3.86861,-2.34437 l -0.0166,-0.38653 0.38654,-0.0166 0.9373,-0.71792 0.43484,-0.0187 1.0277,-0.86703 0.3575,-0.69303 1.38874,-0.35006 -0.0166,-0.38654 c 0.94419,-0.55684 1.78187,-0.96392 2.51307,-1.22124 l 0.27331,-0.39899 0.82139,-0.0353 c 0.94971,-0.428 1.65441,-0.92618 2.1141,-1.49455 l 1.06297,-0.0456 0.32101,0.71231 0.43485,-0.0187 c 0.57661,0.65296 1.06836,1.58383 1.47528,2.79261 z" />
          <path
             inkscape:connector-curvature="0"
             id="path5305"
             style="fill:#000000"
             d="m 346.11904,516.87013 -0.97169,2.17159 -1.02977,0.81872 -0.6308,1.09202 -1.40802,1.02856 -1.6884,-0.99243 -0.0581,-1.35287 c -1.2476,-0.49498 -3.22541,-1.08775 -5.93348,-1.77829 -1.95662,0.27769 -3.76085,1.09738 -5.41269,2.45908 -0.59725,1.12289 -0.85394,1.90841 -0.77012,2.35655 l -0.56736,0.31479 c -0.2526,0.8822 -0.36069,1.37091 -0.32429,1.46611 l -0.67645,0.0291 -0.29525,2.14253 -1.27819,1.7975 0.39898,0.2733 c -0.6405,0.86658 -1.06282,2.30461 -1.26694,4.31412 l 0.41558,0.65983 -0.35335,0.78968 0.0125,0.2899 c -0.18778,0.13717 -0.70089,1.15153 -1.53935,3.04306 -0.83853,1.89159 -1.29641,3.06492 -1.37365,3.52 l -0.64739,0.70549 -0.68593,2.06249 0.163,1.542 -0.74403,0.70962 -0.24426,1.07543 -0.43485,0.0186 -1.64813,2.20063 c -0.22572,3.01087 -0.74784,5.13087 -1.56634,6.36002 l 0.0166,0.38654 -0.9373,0.71792 0.10995,2.56079 c -0.60829,0.86517 -1.41991,2.25538 -2.43484,4.17064 l 0.5371,1.2355 1.39437,0.90826 2.48343,-0.78432 -0.0125,-0.28991 c 0.72562,-0.38613 1.40937,-0.99635 2.05126,-1.83068 0.79597,-1.00229 1.3656,-1.63989 1.70889,-1.9128 l 0.34089,-1.07958 c 0.64183,-0.83431 1.75095,-2.05981 3.32737,-3.67649 0.17941,-0.3304 0.38414,-0.82325 0.61421,-1.47855 l 0.74401,-0.70963 1.73941,-0.0747 c 0.32721,0.85727 0.45427,1.56176 0.38119,2.1135 l -1.30516,1.16937 c -0.54249,0.8946 -1.22526,2.2793 -2.04831,4.15404 l -1.33213,0.54126 -0.22766,1.46196 -1.05052,0.33554 c -0.52412,0.57111 -0.8577,1.06949 -1.00074,1.49515 -0.52963,0.44226 -1.35834,1.05872 -2.48611,1.84935 -0.60374,0.21955 -1.48629,0.70924 -2.64765,1.46905 -0.95806,0.23476 -1.50151,0.3549 -1.63032,0.36044 -0.19329,0.008 -0.5574,-0.0164 -1.09233,-0.0741 -0.53495,-0.0577 -0.94668,-0.0642 -1.23518,-0.0195 l -1.7809,-0.89165 -1.01612,-1.11811 -0.37704,-2.01686 c -1.6588,1.20069 -2.96742,2.28953 -3.92584,3.26654 l -1.73941,0.0747 -1.71036,0.75112 c -2.00915,-0.94639 -3.94093,-1.21842 -5.79534,-0.81609 l -0.31895,-0.66398 -2.17158,-0.97169 -0.0622,-1.44951 -1.12106,-1.30724 -0.0166,-0.38653 c 10e-4,-2.22672 0.15171,-4.73415 0.45152,-7.52231 l -0.3314,-0.95388 0.73987,-0.80627 -0.029,-0.67643 0.75648,-0.41973 0.23181,-1.36531 1.40387,-1.12522 c 0.5806,-1.50936 1.26336,-2.89403 2.04831,-4.15405 0.62208,-0.54301 1.57409,-1.29384 2.85604,-2.25248 l 0.6225,-1.28529 1.7394,-0.0747 1.03393,-0.72209 c 1.17798,-0.37326 3.06876,-0.68034 5.67234,-0.92123 l 0.24306,1.1513 1.16791,0.14346 0.0166,0.38654 0.38653,-0.0166 0.31895,0.66399 0.38653,-0.0166 0.0166,0.38654 c -0.50019,0.37648 -1.34756,0.55808 -2.54212,0.5448 -1.87241,-0.0164 -2.79252,-0.0253 -2.76029,-0.0267 -0.78356,1.29222 -1.95088,2.66544 -3.50196,4.11966 l 0.0456,1.06297 -0.34504,0.98293 -1.04637,0.43217 0.30649,0.37409 0.0125,0.28991 c -0.16147,0.74916 -0.24289,1.10764 -0.24426,1.07542 l -0.38654,0.0166 c 0.0364,0.0952 -0.0661,0.7128 -0.30771,1.85263 l -0.66398,0.31895 0.45707,1.62616 -0.22766,1.46196 -0.73366,0.95121 c -0.48812,1.40861 -0.69968,2.86987 -0.63467,4.38379 l 0.7111,1.90571 0.40313,0.36993 1.07543,0.24426 0.66398,-0.31895 c 0.57979,-0.0248 1.02937,-0.0764 1.34872,-0.15469 l 0.84895,-0.52052 c 0.48455,0.0115 1.30475,-0.42713 2.46062,-1.3158 1.46689,-1.16018 2.24797,-1.75844 2.34323,-1.79482 0.7122,-1.45047 1.18718,-3.16508 1.42494,-5.14379 l 0.6308,-1.09202 c 0.0229,-0.9691 0.18645,-2.42826 0.48973,-4.37757 l 1.10567,-1.30602 -0.43218,-1.04637 c -0.0788,-1.83602 0.21464,-3.26853 0.88041,-4.29753 l -0.029,-0.67643 0.38654,-0.0166 c 0.54975,-1.47577 0.72959,-2.54842 0.53952,-3.21796 0.58155,-0.73491 0.96295,-1.62258 1.1442,-2.66306 l 1.30101,-1.266 0.29941,-2.04591 1.00074,-1.49514 c -0.17314,-1.02519 -0.26938,-1.76329 -0.28871,-2.21428 -0.0305,-0.70862 0.12248,-1.65105 0.45948,-2.82727 0.64184,-0.83429 1.31541,-2.05723 2.02074,-3.66882 0.76139,-1.80752 1.35444,-3.02699 1.77915,-3.65842 0.68926,-0.48133 1.62102,-1.32811 2.79529,-2.54032 l 1.43706,-0.35213 1.20436,-1.26187 1.2604,0.0427 1.02562,-0.91535 c 0.5503,0.0412 1.3595,-0.0906 2.42755,-0.39467 1.06797,-0.30396 1.82745,-0.46566 2.27846,-0.48507 2.448,-0.10506 4.57444,0.19088 6.3793,0.88783 2.0504,-0.34614 3.58686,-0.63801 4.60937,-0.8756 l 1.1086,1.01733 z" />
          <path
             inkscape:connector-curvature="0"
             id="path5307"
             style="fill:#000000"
             d="m 359.20763,545.49693 -0.0937,2.32751 -1.19547,0.34177 c -0.23105,-0.11915 -1.16793,-0.14346 -2.81068,-0.0729 -0.57982,0.0249 -1.33036,-0.16874 -2.25161,-0.581 -0.68851,-1.00308 -1.2357,-1.7218 -1.64158,-2.15619 l -1.47439,-0.51756 c -0.87289,0.71517 -1.51337,1.58172 -1.92144,2.5996 l -0.13515,1.36117 -1.03392,0.72209 -0.98829,1.78505 0.15056,1.25207 -0.3326,1.27284 -0.8531,0.42388 0.1547,1.34873 -1.01526,1.15693 c -0.0858,1.0041 -0.37352,1.82319 -0.86261,2.45733 l -1.04638,0.43217 -0.1393,1.26454 0.2306,0.8614 -0.3243,1.4661 -0.63494,0.99539 -0.23182,1.36533 -1.18985,1.60007 c -1.14855,0.30748 -1.99247,0.56961 -2.53175,0.78639 -0.69857,-0.48633 -1.67597,-0.70253 -2.9322,-0.6486 -0.28991,0.0125 -0.85544,0.18194 -1.69658,0.5085 -0.84115,0.32656 -1.42417,0.46453 -1.74905,0.41394 l -0.52465,-0.94559 0.0468,-1.16376 c 0.52962,-0.44225 1.27226,-1.18409 2.22793,-2.22551 -0.21085,-1.15269 -0.12216,-2.09234 0.26624,-2.81897 l 0.38655,-0.0166 0.15593,-0.87799 0.47486,-0.21403 0.25256,-0.88214 0.38654,-0.0166 0.60175,-1.76845 c 0.36577,-0.49976 0.98304,-1.15553 1.85176,-1.96735 -0.0291,-0.67641 0.38319,-1.5977 1.2367,-2.76382 l -0.0498,-1.15961 c 0.78948,-1.90557 1.06406,-3.40182 0.82379,-4.48871 l -0.78284,-1.32176 -0.97879,-0.24841 c -0.38377,0.081 -0.9944,0.13949 -1.83189,0.17544 l -1.03393,0.72208 -1.08786,-0.53415 -1.05467,0.2389 -0.39898,-0.2733 -1.35287,0.0581 -0.0332,-0.77306 c 0.45413,-0.69716 1.14341,-1.17854 2.06786,-1.44416 l 0.97048,0.0552 c 0.6124,-0.76849 1.55662,-1.32537 2.83262,-1.67062 l 1.35288,-0.0581 0.37409,-0.30651 1.50611,0.12896 c 0.48315,-0.0207 1.26909,-0.50625 2.35776,-1.4566 0.94932,0.31425 1.7712,0.66621 2.46563,1.05587 0.61575,0.81263 0.99911,1.47385 1.1501,1.98368 l 0.0166,0.38653 0.8436,1.60958 0.28991,-0.0125 c 0.4711,-1.05286 1.21326,-2.18193 2.22646,-3.3872 1.1995,-1.37457 2.2776,-2.19535 3.23428,-2.46235 l 1.07956,0.34089 0.71793,0.9373 c 0.85268,0.31839 1.51903,0.80611 1.99907,1.46315 l 0.0331,0.77306 1.31017,1.20231 1.36947,0.32845 0.0125,0.2899 z" />
          <path
             inkscape:connector-curvature="0"
             id="path5309"
             style="fill:#000000"
             d="m 395.79687,538.60125 -0.35748,0.69304 -0.65985,0.41557 0.0166,0.38654 -2.78992,0.41023 -0.35335,0.78966 0.0415,0.96634 -0.27331,0.39898 0.0456,1.06298 -0.38654,0.0166 0.0166,0.38654 -0.55076,0.70133 -0.15593,0.87799 -0.74817,0.613 0.31894,0.66399 c -0.2678,0.52785 -0.62065,1.70474 -1.05855,3.53068 l -1.37483,1.80164 0.38654,-0.0166 0.0166,0.38653 c -1.03256,0.7543 -1.83894,1.51502 -2.41911,2.28214 l -0.16837,0.58811 0.21401,0.47486 -0.24941,3.20553 -0.28991,0.0125 0.029,0.67642 -0.63078,1.09203 0.31894,0.66398 1.07541,0.24426 c 0.79737,-0.97008 2.06734,-1.83138 3.80994,-2.58389 l 0.62544,1.03809 -0.83917,1.87545 c -1.37861,0.96277 -2.52064,2.17355 -3.42609,3.63234 -1.90919,0.63057 -3.18795,0.91136 -3.8363,0.84239 l -0.0125,-0.2899 -1.06298,0.0456 c -0.64383,-0.71458 -1.37876,-1.29616 -2.20477,-1.74476 0.0326,-0.74362 -0.10834,-1.77023 -0.42267,-3.07983 l -0.80627,-0.73988 -0.2899,0.0125 c -1.42778,1.31987 -2.22518,2.28995 -2.39215,2.91026 l -1.72281,0.46121 -0.63079,1.09202 -1.99612,0.86021 -1.22452,-0.33468 -1.1513,0.24306 c -1.22364,-0.68968 -2.27238,-1.06416 -3.14622,-1.12346 l -1.39851,-1.00488 c -1.06039,-2.14888 -1.61132,-3.70648 -1.65282,-4.67282 -0.0222,-0.51537 0.079,-1.16513 0.30355,-1.94927 l 0.2899,-0.0125 c 0.1417,-0.45786 0.33191,-1.28892 0.57064,-2.4932 l -0.32309,-0.76063 -0.0166,-0.38653 c -0.0138,-0.3221 0.16743,-0.7978 0.5438,-1.42712 0.37637,-0.62929 0.57372,-1.10569 0.59211,-1.4292 1.87459,-1.43583 2.94844,-3.48272 3.22158,-6.14065 0.65706,-0.47998 1.1678,-0.98597 1.53221,-1.51797 1.143,-0.4363 1.96666,-0.79437 2.47098,-1.07422 l 0.38654,-0.0166 c 0.67268,-0.8679 1.44753,-1.61113 2.32456,-2.22967 l 0.35334,-0.78967 3.14328,-1.19989 2.81897,0.26624 1.09201,0.63079 1.35287,-0.0581 1.39141,-1.41511 1.35288,-0.0581 1.86508,0.59759 1.3846,-0.44669 0.78967,0.35334 0.31893,0.66399 2.50004,-0.39778 1.02978,-0.8187 0.69303,0.35748 1.04638,-0.43217 c 0.30231,0.27747 0.54853,0.75097 0.73866,1.42045 z m -10.90568,1.92044 -2.15913,-0.68179 c -1.27326,0.40967 -2.42734,0.5883 -3.46223,0.5359 l -2.46683,1.17085 -1.29478,1.41096 c -0.0745,0.51956 -0.57988,2.09024 -1.51609,4.71206 -0.93624,2.62187 -1.49822,4.00137 -1.68593,4.13849 l -0.14762,1.07128 -0.92899,0.91119 -0.16423,0.68474 0.22232,0.66813 -0.99867,1.54346 0.0539,1.25625 -0.55491,0.60469 0.0415,0.96634 -0.35748,0.69303 0.0166,0.38653 -0.99805,0.43011 0.0581,1.35287 0.3065,0.37408 1.52687,0.61213 c 0.76199,-0.29088 1.89118,-1.04932 3.38752,-2.27531 l 0.38655,-0.0166 1.03392,-0.72209 c 0.33219,-0.53059 0.88155,-1.26413 1.64812,-2.20062 l -0.0125,-0.28991 0.65984,-0.41557 c 0.65331,-1.31888 1.63537,-3.24887 2.94619,-5.79 l -0.0166,-0.38653 1.01733,-1.10862 c 0.051,-1.06709 0.41994,-2.24468 1.10687,-3.53274 -0.0741,-0.2227 -0.004,-0.83886 0.21109,-1.84849 l 0.76061,-0.3231 -0.0166,-0.38654 -0.20987,-0.37824 c 0.17389,-0.45923 0.49916,-1.15087 0.97585,-2.07494 l 0.2899,-0.0125 z" />
          <path
             inkscape:connector-curvature="0"
             id="path5311"
             style="fill:#000000"
             d="m 425.11181,542.66721 -0.0937,2.32751 -1.19547,0.34177 c -0.23105,-0.11914 -1.16794,-0.14347 -2.81068,-0.0729 -0.57984,0.0249 -1.33037,-0.16875 -2.25162,-0.58101 -0.68851,-1.00308 -1.23569,-1.72181 -1.64157,-2.15618 l -1.4744,-0.51758 c -0.87289,0.71519 -1.51337,1.58172 -1.92143,2.59961 l -0.13515,1.36118 -1.03393,0.72207 -0.98828,1.78505 0.15055,1.25209 -0.33259,1.27284 -0.85312,0.42387 0.15471,1.34873 -1.01527,1.15692 c -0.0858,1.00411 -0.3735,1.82321 -0.86259,2.45734 l -1.04638,0.43217 -0.13931,1.26455 0.23062,0.8614 -0.32431,1.4661 -0.63493,0.99538 -0.23182,1.36532 -1.18986,1.60007 c -1.14855,0.30748 -1.99246,0.56962 -2.53174,0.78639 -0.69858,-0.48633 -1.67597,-0.70253 -2.9322,-0.64859 -0.28992,0.0125 -0.85544,0.18195 -1.69659,0.5085 -0.84115,0.32655 -1.42416,0.46453 -1.74904,0.41394 l -0.52467,-0.94559 0.0468,-1.16375 c 0.5296,-0.44226 1.27224,-1.1841 2.22792,-2.22553 -0.21085,-1.15268 -0.12207,-2.09234 0.26624,-2.81897 l 0.38655,-0.0166 0.15593,-0.87799 0.47486,-0.21402 0.25256,-0.88215 0.38654,-0.0166 0.60174,-1.76846 c 0.36579,-0.49975 0.98304,-1.15553 1.85178,-1.96733 -0.029,-0.67642 0.38317,-1.5977 1.2367,-2.76383 l -0.0498,-1.15962 c 0.78947,-1.90556 1.06406,-3.4018 0.82378,-4.48871 l -0.78284,-1.32175 -0.97878,-0.24841 c -0.38377,0.081 -0.99441,0.13948 -1.8319,0.17544 l -1.03393,0.72208 -1.08786,-0.53415 -1.05467,0.2389 -0.39898,-0.27331 -1.35287,0.0581 -0.0332,-0.77307 c 0.45414,-0.69714 1.14341,-1.17854 2.06786,-1.44415 l 0.97048,0.0552 c 0.6124,-0.7685 1.55662,-1.32537 2.83262,-1.67062 l 1.35287,-0.0581 0.37408,-0.3065 1.50614,0.12897 c 0.48315,-0.0207 1.26907,-0.50626 2.35776,-1.45661 0.94932,0.31425 1.77119,0.6662 2.46561,1.05588 0.61576,0.81262 0.99912,1.47384 1.15011,1.98366 l 0.0166,0.38654 0.84362,1.60959 0.2899,-0.0125 c 0.4711,-1.05287 1.21326,-2.18194 2.22645,-3.3872 1.19952,-1.37459 2.27761,-2.19537 3.2343,-2.46236 l 1.07956,0.34089 0.71792,0.93729 c 0.85268,0.31839 1.51903,0.80612 1.99907,1.46316 l 0.0331,0.77307 1.31018,1.20229 1.36946,0.32845 0.0125,0.28991 z" />
          <path
             inkscape:connector-curvature="0"
             id="path5313"
             style="fill:#000000"
             d="m 453.20468,541.94505 -0.36994,0.40314 -0.051,1.06711 0.42802,0.94973 -0.33675,1.17621 0.25551,1.44121 c -0.73062,1.77399 -1.48611,2.96817 -2.26647,3.58254 -0.0644,0.003 -0.30396,0.0615 -0.71852,0.17606 -0.41463,0.1146 -0.65414,0.17333 -0.71854,0.17607 -0.0644,0.003 -0.77728,-0.063 -2.13839,-0.19862 l -0.69303,-0.35749 c -0.76894,0.12981 -2.50893,0.003 -5.21999,-0.38094 -2.71109,-0.38377 -4.54199,-0.74888 -5.4927,-1.09532 l -1.18303,0.63167 c -0.0897,0.16521 -0.36714,1.0323 -0.83222,2.60125 -0.46511,1.56896 -0.69489,2.41787 -0.68936,2.5467 0.0125,0.28992 0.0465,0.70797 0.10229,1.25417 0.0557,0.54621 0.0899,0.96426 0.1023,1.25415 l 1.57813,2.93342 c 0.91573,0.28338 1.45413,0.42162 1.6152,0.4147 0.0966,-0.004 0.19257,-0.0244 0.28782,-0.0608 0.0952,-0.0363 0.19118,-0.0566 0.28783,-0.0608 l 2.91145,0.16546 c 0.73255,-0.22508 1.55344,-0.64757 2.46268,-1.26749 1.12779,-0.79063 1.88149,-1.27479 2.26113,-1.45244 l 0.67229,-0.12565 c 0.71732,-0.5794 1.26808,-1.28073 1.65228,-2.104 l 2.0044,-0.66693 0.43219,1.04638 c -0.1265,0.8122 -1.71575,2.88121 -4.76772,6.20704 -1.04086,0.56102 -2.52416,0.96355 -4.44989,1.20759 -2.11905,0.25233 -3.60649,0.55823 -4.46235,0.91769 l -2.19085,-0.29318 -0.30235,-0.27745 -1.75602,-0.31185 c -1.68979,-1.02465 -3.31615,-2.82651 -4.87906,-5.4056 -0.0976,-0.77031 -0.29878,-1.6975 -0.6035,-2.78163 0.1362,-0.58671 0.30978,-1.80431 0.52084,-3.65281 l 0.36994,-0.40312 -0.20571,-0.28161 0.64739,-0.70548 0.32431,-1.4661 c 0.53236,-0.37783 0.95289,-1.10584 1.26158,-2.18403 l -0.13692,-3.18892 0.76062,-0.32309 0.56856,-2.54152 c 2.23385,-2.8389 4.65415,-4.7177 7.26091,-5.63641 0.16105,-0.007 0.40332,-10e-4 0.72682,0.0173 0.3235,0.0183 0.56576,0.0241 0.72683,0.0173 0.92304,-0.29777 1.36846,-0.44598 1.33628,-0.44462 l 1.18034,0.43338 c 0.38377,-0.0809 0.92443,-0.26557 1.62203,-0.55371 0.48453,0.0115 1.20077,0.15828 2.14876,0.4402 0.94793,0.28204 1.66419,0.42877 2.14876,0.44021 l 1.01199,1.02148 0.98293,0.34504 0.51221,0.65569 1.37777,0.52171 0.81041,0.83652 c 0.17624,0.34742 0.3615,0.90421 0.55577,1.67034 0.19423,0.76617 0.37949,1.32295 0.55578,1.67034 z m -5.45834,1.39611 -0.40313,-0.36994 c -0.0498,-1.15959 -0.11939,-2.0279 -0.20863,-2.60497 -0.41976,-0.75645 -1.69495,-1.89571 -3.82561,-3.41778 -1.22404,0.0526 -2.78579,0.50689 -4.68526,1.36292 l -0.44998,0.79382 -0.8448,0.61714 -0.34919,0.88631 -0.27746,0.30235 0.0332,0.77305 -0.55906,0.50807 c -0.17667,0.39485 -0.31007,1.04599 -0.40018,1.95343 l -0.38653,0.0166 -0.0595,0.87382 0.33968,1.14716 c 2.04136,0.94503 5.64446,1.43574 10.80934,1.47212 0.21478,-1.00959 0.54283,-1.63681 0.98413,-1.88168 z" />
          <path
             inkscape:connector-curvature="0"
             id="path5315"
             style="fill:#000000"
             d="m 491.95037,536.7962 -0.27331,0.39899 0.0768,1.78772 -0.36994,0.40314 -0.69631,1.8209 0.31894,0.664 -0.36993,0.40313 c -0.0645,0.74507 -0.26219,1.78616 -0.59198,3.1234 l 0.21401,0.47487 c -0.60691,0.89738 -1.30786,2.23443 -2.10284,4.01116 -0.82036,1.9392 -1.21391,3.29533 -1.18069,4.0684 l -0.67911,1.09408 0.25342,1.39289 c 1.373,-1.09161 2.39241,-2.1519 3.05821,-3.18088 l 1.23342,-0.58543 1.51442,0.32223 c -0.0998,0.68198 -0.65426,1.6739 -1.66324,2.97577 -1.16183,1.50206 -1.90467,2.61502 -2.22853,3.33888 l -0.65777,0.46389 0.0125,0.28991 -2.30321,1.59947 c -1.06715,-0.051 -2.31677,-0.59434 -3.74885,-1.63006 -0.17352,-0.28298 -0.55985,-0.63751 -1.15899,-1.06356 l -0.52881,-1.04223 -0.0477,-1.11128 -0.41558,-0.65985 0.25463,-0.83382 c -0.0949,-0.70588 -0.14225,-1.05883 -0.14225,-1.05883 -0.0581,-1.35286 0.54443,-3.29077 1.80763,-5.81372 1.26314,-2.52292 1.80562,-4.73254 1.6274,-6.62888 0.59441,-1.18724 1.00063,-2.62458 1.21863,-4.31204 l -1.03124,-0.34297 -0.36995,0.40313 0.0125,0.2899 -2.10995,1.59118 0.0166,0.38653 -1.38875,0.35008 0.0166,0.38653 c -1.04777,0.39999 -1.75247,0.89817 -2.11409,1.49455 l 0.0332,0.77306 c -0.40632,0.3079 -1.24955,0.58614 -2.52968,0.83471 l 0.0291,0.67644 -0.67644,0.029 -0.32162,0.40105 -0.38654,0.0166 -0.35748,0.69304 0.0353,0.82138 -1.05052,0.33554 0.029,0.67643 -0.48377,1.13412 -0.024,1.69523 c -0.39248,0.63001 -0.73649,1.63709 -1.03202,3.02127 -0.29556,1.38421 -0.62346,2.39061 -0.98369,3.01921 -0.59545,0.41282 -1.19382,1.13233 -1.79516,2.15854 -0.69108,1.19141 -1.22228,1.97258 -1.59359,2.3435 -1.14855,0.30748 -2.90356,0.77008 -5.26507,1.38781 l -1.22865,-0.43131 -1.67035,0.55578 -1.88998,-1.1774 -0.9023,-1.84909 0.31394,-1.70769 1.09468,-0.43424 c 1.01929,0.44029 1.86005,0.85598 2.52226,1.24707 l 1.77526,-0.36667 1.17473,-0.82493 0.20075,-2.09007 0.37408,-0.3065 c -0.082,-1.15822 0.003,-2.19451 0.25387,-3.10887 0.44443,-0.92264 1.0775,-2.33746 1.8992,-4.24446 0.25572,-1.55995 0.88297,-3.86196 1.88175,-6.90603 l -0.33762,-1.09884 0.25671,-0.78551 -0.70549,-0.6474 -1.09468,0.43426 0.0125,0.2899 -1.43291,0.44877 -0.98561,0.72 c -1.43984,0.28773 -2.65211,0.61409 -3.63681,0.97906 l -1.823,-0.74463 -0.43217,-1.04637 0.35749,-0.69303 c 3.41715,-0.0822 6.97778,-1.33225 10.68191,-3.75026 l 0.77306,-0.0332 2.29491,-1.79275 1.19963,-0.24512 1.08372,0.43752 c 1.47951,1.38868 2.12658,2.55491 1.94124,3.49869 l -0.65984,0.41558 0.0311,0.72476 -0.67911,1.0941 c 0.0755,0.25494 0.0311,0.72477 -0.13312,1.40948 l 0.22646,0.76477 0.74135,0.35541 c 1.20602,-0.47128 2.49557,-1.25273 3.86863,-2.34437 l -0.0166,-0.38653 0.38654,-0.0166 0.93729,-0.71793 0.43484,-0.0186 1.02771,-0.86704 0.35749,-0.69303 1.38874,-0.35006 -0.0166,-0.38653 c 0.94418,-0.55685 1.78188,-0.96392 2.51308,-1.22125 l 0.27331,-0.39899 0.82138,-0.0353 c 0.94971,-0.428 1.6544,-0.92617 2.11409,-1.49455 l 1.06297,-0.0456 0.32103,0.71232 0.43485,-0.0187 c 0.5766,0.65296 1.06835,1.58383 1.47526,2.79261 z" />
        </g>
        <g
           transform="matrix(0.91993455,0,0,0.91993455,45.723409,95.675757)"
           id="g5228">
          <path
             d="m 246.58166,517.02946 -0.26085,0.6889 -1.79041,1.14179 -1.25951,2.23235 -0.28277,2.43244 -0.6308,1.09202 -0.30769,1.85263 -0.6474,0.70548 -0.31185,1.75601 -1.01733,1.10861 0.0291,0.67645 -1.31968,0.83115 -0.35748,0.69303 -1.04638,0.43217 -0.30918,0.69096 c -0.55498,0.60474 -1.37727,0.99503 -2.46683,1.17086 l -0.37408,0.3065 0.0166,0.38653 c -1.03084,0.0443 -2.32018,0.45463 -3.86803,1.23102 -1.26363,0.63515 -2.51107,1.26957 -3.74234,1.90329 l -4.54178,0.19501 -1.54079,-2.0637 -0.28991,0.0125 0.21525,-1.75185 -0.79677,-2.77334 c 0.36987,-0.40308 1.21353,-0.85883 2.53102,-1.36722 1.31733,-0.50832 2.22037,-0.70844 2.70915,-0.60039 l 0.72207,1.03393 -0.19445,2.23502 0.77601,2.29017 0.96634,-0.0415 c 1.54784,-0.77638 3.09507,-1.56891 4.6417,-2.37757 2.36458,-1.2955 3.70471,-2.40184 4.02039,-3.319 l 0.28991,-0.0125 c 0.54831,-1.50795 1.4703,-3.70967 2.76597,-6.60516 -0.0665,-1.54609 -0.29283,-3.81144 -0.67905,-6.79608 -1.30058,-0.97676 -2.88772,-1.48949 -4.76142,-1.53818 l -3.93708,0.74992 -0.65985,0.41558 -0.35749,0.69304 c -1.56044,0.48656 -2.89989,1.609 -4.01833,3.36732 l -0.76062,0.3231 0.0166,0.38653 c -1.39979,1.2219 -2.27789,2.56655 -2.63433,4.03399 l -1.71036,0.75113 c -0.6852,0.57806 -1.72832,1.46188 -3.12935,2.65147 -0.42752,0.567 -1.10159,1.4027 -2.02221,2.50712 l -5.34751,6.23195 c -0.60833,0.86519 -1.49681,1.96825 -2.66546,3.30923 l -2.12594,0.0913 -1.42046,0.73867 -0.59553,1.91341 0.43218,1.04637 -1.42047,0.73867 c -0.33817,1.14402 -1.01797,2.22201 -2.03941,3.23396 -0.8996,0.84541 -1.79845,1.70691 -2.69657,2.58448 -0.46978,1.08513 -1.56854,2.5522 -3.29625,4.40125 l -0.77306,0.0332 c -1.27823,1.79753 -2.5831,3.72525 -3.9146,5.78317 l -2.20184,0.5786 -1.29893,1.31433 -0.95302,2.60643 c -0.46522,0.4395 -1.0146,1.17305 -1.64812,2.20063 -0.63359,1.02759 -1.18297,1.76113 -1.64813,2.20062 l -0.34089,1.07957 -0.38654,0.0166 -0.24426,1.07541 -1.40386,1.12522 -0.59198,3.12339 c -0.3755,0.27428 -1.78727,0.46399 -4.23529,0.5691 -0.61894,-0.13481 -0.9788,-0.24841 -1.07957,-0.3409 l 0.9883,-1.78504 -0.0456,-1.06297 c -0.7561,-0.32252 -1.72065,-0.99106 -2.89366,-2.00562 l -0.0581,-1.35287 c 1.94728,-1.24535 3.56514,-1.89568 4.85362,-1.95102 0.87699,-0.61852 1.42084,-1.48089 1.63154,-2.58716 l -0.029,-0.67643 c 1.30011,-3.54103 1.92736,-5.84305 1.88175,-6.90603 -0.003,-0.0644 -0.15895,-1.44534 -0.46832,-4.1428 l 0.87506,-2.16744 c 0.13515,-1.36115 0.18787,-3.13828 0.15833,-5.33144 l 0.66399,-0.31895 c 0.7936,-1.80893 1.20969,-3.39191 1.24827,-4.74897 l -0.47782,-2.10934 -1.10861,-1.01733 c 0.7936,-1.80894 1.25682,-3.79732 1.38967,-5.9652 l 1.65228,-2.104 1.50879,-0.93608 c -0.2514,-1.34453 -0.37845,-2.04903 -0.38118,-2.11349 -0.008,-0.19323 0.063,-0.77722 0.21525,-1.75186 l 1.57223,-1.7133 0.76806,-2.40488 2.3453,-1.74649 -0.75112,-1.71037 -0.2899,0.0125 -0.12448,-2.89901 c 0.21893,-0.91292 0.49677,-1.95751 0.83357,-3.13378 -1.92027,0.37295 -4.34343,1.05787 -7.26948,2.05475 l 0.0166,0.38654 -2.09689,0.76771 -3.54372,-0.23511 c -1.26636,0.57075 -2.15721,0.86717 -2.67256,0.88924 -3.15672,0.1356 -5.55141,-0.0198 -7.18408,-0.46607 l -0.75647,0.41973 -3.86535,0.16596 c -1.19182,0.0512 -2.8595,-0.45804 -5.003,-1.5278 l -1.21502,-2.36813 0.15299,-3.20135 c 0.75964,-1.09748 2.18376,-2.12675 4.27237,-3.0878 l 0.2733,-0.39899 c 2.34905,-0.90755 4.80994,-1.465 7.38271,-1.67235 l 0.64532,-0.75379 c 1.80339,0.66486 3.59092,0.95921 5.36257,0.88308 0.32208,-0.0138 0.78707,-0.0821 1.39496,-0.20512 0.60784,-0.12289 1.08893,-0.1919 1.44328,-0.20718 0.25766,-0.011 1.55441,0.12693 3.89025,0.41384 l 1.69999,-0.99272 c 1.00226,0.79607 3.24765,1.23213 6.73618,1.30816 l 1.09617,0.72744 c 0.92579,-0.23331 2.12728,-0.059 3.60449,0.52292 l 2.21722,2.03466 c 0.99297,-0.17165 2.02531,-0.55482 3.09703,-1.1495 1.85892,-1.04787 2.80381,-1.58865 2.83469,-1.62229 0.94831,-0.46018 2.27263,-0.80748 3.97297,-1.0419 2.24505,-0.32223 3.6071,-0.54206 4.08618,-0.65951 0.66531,-0.28667 1.68086,-0.68525 3.04664,-1.19575 -0.0967,0.004 0.50909,-0.16701 1.81737,-0.51368 0.41868,-0.0179 1.01735,0.021 1.79602,0.11649 0.93959,0.0888 1.52285,0.14442 1.74978,0.16693 l 1.49514,1.00074 1.4898,3.13081 -0.61835,1.38192 c -2.33035,-0.158 -3.30221,-0.24536 -2.9156,-0.26208 0.48309,-0.0207 -0.42939,0.14759 -2.73747,0.5048 l -2.20063,-1.64813 c -1.03636,-0.0843 -1.8444,-0.11436 -2.42414,-0.0895 -0.41879,0.018 -1.16287,0.16294 -2.23221,0.43469 -1.06945,0.27188 -1.86321,0.38664 -2.38131,0.34428 l -0.37409,0.3065 c -2.48071,0.84879 -5.16156,1.54478 -8.04254,2.08792 l 0.0332,0.77308 c 0.0332,0.77312 0.42333,1.78097 1.17055,3.0235 0.74712,1.24268 1.15134,2.20151 1.21264,2.8765 -0.51445,0.79664 -1.63068,2.23221 -3.34871,4.3067 -1.17135,3.53556 -1.62322,6.54 -1.35562,9.0133 -0.63222,1.05985 -1.28555,2.37873 -1.95998,3.95663 l 0.73453,1.32383 0.12033,2.80238 -0.6142,1.47854 0.0166,0.38654 -0.38653,0.0166 c -0.4196,1.50249 -0.94961,2.68699 -1.59004,3.5535 l 0.38326,2.16181 -0.27331,0.39898 0.0581,1.35287 -0.97169,2.17158 -0.38654,0.0166 c -1.72624,4.14024 -3.33009,7.37162 -4.8116,9.69416 l -0.3077,1.85264 c 0.33354,-0.49838 0.75822,-1.12975 1.27404,-1.89413 l 2.08445,-1.05763 -0.0166,-0.38653 c 0.69063,-0.44916 1.3569,-1.0909 1.99879,-1.92525 1.10286,-1.37043 1.66972,-2.07245 1.7006,-2.10607 0.43846,-0.30924 1.02973,-0.81868 1.7738,-1.52834 0.53687,-1.02342 1.51785,-2.22727 2.94291,-3.61158 1.04119,-1.30324 1.62367,-2.39318 1.74743,-3.26983 l 0.28991,-0.0125 c 0.37996,-0.91988 1.55212,-2.18034 3.51648,-3.78144 2.15199,-1.73817 3.45507,-2.95587 3.90925,-3.65308 0.3837,-0.081 0.75987,-0.33916 1.12848,-0.77454 0.58291,-0.70267 0.89051,-1.05472 0.92277,-1.05615 0.65702,-0.47996 1.3141,-0.95996 1.97123,-1.44 0.78171,-0.58213 1.2708,-1.21627 1.46729,-1.90243 l 0.65985,-0.41558 0.61835,-1.38191 c 0.34457,-0.24065 0.81253,-0.61572 1.40386,-1.12521 l 3.1003,-3.32791 0.24427,-1.07542 c 0.27876,-0.27008 0.74673,-0.64516 1.40386,-1.1252 0.65701,-0.47996 1.12496,-0.85503 1.40387,-1.12522 l 0.67643,-0.029 1.32176,-0.78285 0.65274,-2.83557 1.32382,-0.73452 -0.0166,-0.38654 c 1.4783,-1.64468 3.20081,-2.86424 5.16756,-3.6587 0.95104,-0.39576 2.96029,-0.94995 6.02776,-1.66259 0.38092,-0.14537 0.9377,-0.33063 1.67035,-0.55577 1.09647,-0.0147 2.73509,-0.1819 4.91586,-0.50151 l 1.76845,0.60175 3.04839,3.35434 0.0788,1.83604 z m -58.35512,-7.36921 -0.35214,-1.43706 -1.10861,-1.01733 c -2.48682,-0.79674 -4.50327,-1.16195 -6.04938,-1.09562 l -0.66399,0.31894 c -1.16794,-0.14336 -1.78409,-0.21375 -1.84849,-0.21108 -0.41878,0.018 -1.06091,0.094 -1.92645,0.22793 -0.86558,0.13406 -1.52383,0.21071 -1.97476,0.23001 -0.96637,0.0416 -2.48054,-0.087 -4.54252,-0.38577 -2.06203,-0.29864 -3.59232,-0.42657 -4.59084,-0.38375 -0.78732,0.45338 -2.30581,1.16399 -4.55543,2.13183 l -1.858,1.82239 1.34752,2.07201 1.07542,0.24426 0.70963,0.74403 c 1.55442,0.12693 2.39606,0.18761 2.52493,0.18198 0.22546,-0.01 0.5777,-0.0732 1.05674,-0.19059 0.479,-0.11735 0.83125,-0.18084 1.05674,-0.19059 0.35431,-0.0151 0.87176,0.011 1.55237,0.0785 0.68057,0.0676 1.19802,0.0939 1.55237,0.0785 l 3.57545,-0.15352 c 0.32208,-0.0137 0.81123,-0.0832 1.46744,-0.20823 0.65615,-0.12496 1.11308,-0.19295 1.3708,-0.20407 2.66659,-0.27579 4.38367,-0.49473 5.15124,-0.65684 1.66388,-0.32954 3.33076,-0.96585 5.00066,-1.90891 z"
             id="path2990"
             inkscape:connector-curvature="0"
             style="fill:#ff5555" />
          <path
             d="m 248.91365,544.90797 -0.3575,0.69303 -0.65984,0.41557 0.0166,0.38655 -2.78992,0.41022 -0.35335,0.78967 0.0415,0.96633 -0.2733,0.39898 0.0456,1.06298 -0.38653,0.0166 0.0166,0.38654 -0.55076,0.70133 -0.15594,0.878 -0.74817,0.613 0.31895,0.66399 c -0.2678,0.52784 -0.62065,1.70473 -1.05855,3.53068 l -1.37482,1.80164 0.38653,-0.0166 0.0166,0.38653 c -1.03257,0.7543 -1.83895,1.51501 -2.41912,2.28214 l -0.16837,0.58809 0.21402,0.47487 -0.24942,3.20553 -0.28991,0.0125 0.0291,0.67645 -0.63077,1.09201 0.31893,0.66399 1.07542,0.24426 c 0.79736,-0.97007 2.06734,-1.83137 3.80993,-2.58388 l 0.62545,1.03807 -0.83918,1.87546 c -1.3786,0.96277 -2.52063,2.17355 -3.42608,3.63233 -1.9092,0.63058 -3.18796,0.91138 -3.83631,0.84241 l -0.0125,-0.28991 -1.06297,0.0456 c -0.64384,-0.71457 -1.37876,-1.29617 -2.20478,-1.74475 0.0326,-0.74362 -0.10834,-1.77023 -0.42267,-3.07984 l -0.80626,-0.73987 -0.28991,0.0125 c -1.42778,1.31986 -2.22518,2.28994 -2.39215,2.91025 l -1.72281,0.46122 -0.63079,1.09201 -1.99611,0.8602 -1.22452,-0.33466 -1.1513,0.24306 c -1.22364,-0.68968 -2.27238,-1.06418 -3.14623,-1.12348 l -1.39852,-1.00488 c -1.06038,-2.14886 -1.61131,-3.70647 -1.65281,-4.6728 -0.0222,-0.51538 0.079,-1.16514 0.30355,-1.94929 l 0.28991,-0.0125 c 0.14169,-0.45787 0.33191,-1.28893 0.57064,-2.49321 l -0.3231,-0.76062 -0.0166,-0.38653 c -0.0139,-0.32211 0.16742,-0.79782 0.54379,-1.42713 0.37636,-0.62928 0.57373,-1.10569 0.59212,-1.4292 1.87458,-1.43584 2.94843,-3.48273 3.22157,-6.14066 0.65706,-0.47998 1.16779,-0.98596 1.53221,-1.51797 1.14299,-0.4363 1.96666,-0.79437 2.47099,-1.07421 l 0.38653,-0.0166 c 0.67268,-0.86789 1.44753,-1.61111 2.32456,-2.22967 l 0.35334,-0.78966 3.14327,-1.19989 2.81897,0.26624 1.09202,0.63079 1.35288,-0.0581 1.39141,-1.41512 1.35287,-0.0581 1.86509,0.59761 1.38459,-0.4467 0.78967,0.35335 0.31894,0.66398 2.50004,-0.39778 1.02978,-0.81871 0.69303,0.3575 1.04637,-0.43218 c 0.30231,0.27747 0.54853,0.75097 0.73867,1.42046 z m -10.9057,1.92043 -2.15913,-0.68179 c -1.27326,0.40967 -2.42733,0.58831 -3.46222,0.53591 l -2.46684,1.17084 -1.29478,1.41097 c -0.0744,0.51955 -0.57988,2.09024 -1.51608,4.71206 -0.93624,2.62187 -1.49822,4.00136 -1.68594,4.13849 l -0.14762,1.07127 -0.92899,0.91119 -0.16423,0.68473 0.22231,0.66814 -0.99865,1.54347 0.0539,1.25623 -0.5549,0.6047 0.0415,0.96634 -0.35749,0.69303 0.0166,0.38654 -0.99807,0.4301 0.0581,1.35287 0.3065,0.37409 1.52687,0.61213 c 0.76199,-0.29088 1.89117,-1.04932 3.38753,-2.27532 l 0.38654,-0.0166 1.03393,-0.72208 c 0.33217,-0.53059 0.88154,-1.26413 1.64812,-2.20062 l -0.0125,-0.28992 0.65985,-0.41557 c 0.6533,-1.31887 1.63536,-3.24887 2.94618,-5.78999 l -0.0166,-0.38654 1.01732,-1.10861 c 0.051,-1.0671 0.41993,-2.24469 1.10687,-3.53276 -0.0741,-0.22269 -0.004,-0.83884 0.21109,-1.84848 l 0.76062,-0.32309 -0.0166,-0.38654 -0.20987,-0.37824 c 0.17388,-0.45923 0.49916,-1.15088 0.97583,-2.07495 l 0.28992,-0.0125 z"
             style="fill:#ff5555"
             id="path2992"
             inkscape:connector-curvature="0" />
          <path
             d="m 284.96097,545.68369 -0.27331,0.39899 0.0768,1.78772 -0.36993,0.40312 -0.69633,1.82092 0.31895,0.66399 -0.36994,0.40313 c -0.0645,0.74507 -0.26217,1.78617 -0.59198,3.12341 l 0.21403,0.47486 c -0.60693,0.89738 -1.30788,2.23444 -2.10287,4.01117 -0.82034,1.9392 -1.2139,3.29533 -1.18067,4.06839 l -0.67912,1.09409 0.25344,1.39289 c 1.373,-1.09161 2.3924,-2.15191 3.05821,-3.18089 l 1.23341,-0.58543 1.51443,0.32224 c -0.0998,0.68197 -0.65426,1.6739 -1.66325,2.97577 -1.16183,1.50206 -1.90467,2.61502 -2.22853,3.33887 l -0.65777,0.4639 0.0125,0.2899 -2.30322,1.59948 c -1.06715,-0.051 -2.31676,-0.59434 -3.74884,-1.63006 -0.17352,-0.28299 -0.55985,-0.63751 -1.15899,-1.06356 l -0.52882,-1.04223 -0.0477,-1.11129 -0.41557,-0.65983 0.25464,-0.83383 c -0.0949,-0.70588 -0.14236,-1.05883 -0.14226,-1.05883 -0.0581,-1.35287 0.54443,-3.29078 1.80763,-5.81373 1.26314,-2.52291 1.80561,-4.73254 1.62741,-6.62887 0.5944,-1.18725 1.00061,-2.62458 1.21862,-4.31204 l -1.03125,-0.34297 -0.36993,0.40313 0.0125,0.2899 -2.10995,1.59118 0.0166,0.38653 -1.38874,0.35007 0.0166,0.38654 c -1.04779,0.39998 -1.75248,0.89816 -2.11409,1.49454 l 0.0331,0.77306 c -0.40633,0.30791 -1.24955,0.58614 -2.52968,0.83472 l 0.0291,0.67643 -0.67644,0.0291 -0.32163,0.40106 -0.38653,0.0166 -0.35748,0.69303 0.0353,0.82139 -1.05053,0.33554 0.0291,0.67645 -0.48376,1.1341 -0.024,1.69524 c -0.3925,0.63 -0.7365,1.63709 -1.03203,3.02127 -0.29555,1.38421 -0.62345,2.39061 -0.9837,3.0192 -0.59543,0.41282 -1.19381,1.13233 -1.79515,2.15854 -0.69108,1.19141 -1.22227,1.97258 -1.59358,2.3435 -1.14855,0.30748 -2.90358,0.77008 -5.26507,1.38782 l -1.22867,-0.43132 -1.67034,0.55579 -1.88998,-1.17741 -0.9023,-1.84909 0.31392,-1.70769 1.0947,-0.43424 c 1.01929,0.44029 1.86004,0.85598 2.52224,1.24707 l 1.77528,-0.36667 1.17474,-0.82493 0.20074,-2.09007 0.37408,-0.3065 c -0.082,-1.15821 0.003,-2.19451 0.25387,-3.10887 0.44444,-0.92264 1.07751,-2.33746 1.89922,-4.24446 0.25572,-1.55995 0.88297,-3.86196 1.88174,-6.90602 l -0.33762,-1.09884 0.25672,-0.78552 -0.70549,-0.64739 -1.09469,0.43425 0.0125,0.2899 -1.43291,0.44877 -0.98561,0.72001 c -1.43983,0.28773 -2.6521,0.61408 -3.63681,0.97905 l -1.823,-0.74462 -0.43217,-1.04638 0.35749,-0.69303 c 3.41715,-0.0822 6.97778,-1.33224 10.6819,-3.75026 l 0.77307,-0.0331 2.29492,-1.79275 1.19962,-0.24512 1.08371,0.43752 c 1.47952,1.38868 2.1266,2.5549 1.94124,3.49868 l -0.65982,0.41559 0.0311,0.72475 -0.67912,1.0941 c 0.0755,0.25494 0.0311,0.72477 -0.13312,1.40949 l 0.22646,0.76476 0.74136,0.35541 c 1.20602,-0.47128 2.49556,-1.25273 3.86861,-2.34437 l -0.0166,-0.38653 0.38654,-0.0166 0.9373,-0.71792 0.43484,-0.0187 1.0277,-0.86703 0.3575,-0.69303 1.38874,-0.35006 -0.0166,-0.38654 c 0.94419,-0.55684 1.78187,-0.96392 2.51307,-1.22124 l 0.27331,-0.39899 0.82139,-0.0353 c 0.94971,-0.428 1.65441,-0.92618 2.1141,-1.49455 l 1.06297,-0.0456 0.32101,0.71231 0.43485,-0.0187 c 0.57661,0.65296 1.06836,1.58383 1.47528,2.79261 z"
             style="fill:#ff5555"
             id="path2994"
             inkscape:connector-curvature="0" />
          <path
             d="m 346.11904,516.87013 -0.97169,2.17159 -1.02977,0.81872 -0.6308,1.09202 -1.40802,1.02856 -1.6884,-0.99243 -0.0581,-1.35287 c -1.2476,-0.49498 -3.22541,-1.08775 -5.93348,-1.77829 -1.95662,0.27769 -3.76085,1.09738 -5.41269,2.45908 -0.59725,1.12289 -0.85394,1.90841 -0.77012,2.35655 l -0.56736,0.31479 c -0.2526,0.8822 -0.36069,1.37091 -0.32429,1.46611 l -0.67645,0.0291 -0.29525,2.14253 -1.27819,1.7975 0.39898,0.2733 c -0.6405,0.86658 -1.06282,2.30461 -1.26694,4.31412 l 0.41558,0.65983 -0.35335,0.78968 0.0125,0.2899 c -0.18778,0.13717 -0.70089,1.15153 -1.53935,3.04306 -0.83853,1.89159 -1.29641,3.06492 -1.37365,3.52 l -0.64739,0.70549 -0.68593,2.06249 0.163,1.542 -0.74403,0.70962 -0.24426,1.07543 -0.43485,0.0186 -1.64813,2.20063 c -0.22572,3.01087 -0.74784,5.13087 -1.56634,6.36002 l 0.0166,0.38654 -0.9373,0.71792 0.10995,2.56079 c -0.60829,0.86517 -1.41991,2.25538 -2.43484,4.17064 l 0.5371,1.2355 1.39437,0.90826 2.48343,-0.78432 -0.0125,-0.28991 c 0.72562,-0.38613 1.40937,-0.99635 2.05126,-1.83068 0.79597,-1.00229 1.3656,-1.63989 1.70889,-1.9128 l 0.34089,-1.07958 c 0.64183,-0.83431 1.75095,-2.05981 3.32737,-3.67649 0.17941,-0.3304 0.38414,-0.82325 0.61421,-1.47855 l 0.74401,-0.70963 1.73941,-0.0747 c 0.32721,0.85727 0.45427,1.56176 0.38119,2.1135 l -1.30516,1.16937 c -0.54249,0.8946 -1.22526,2.2793 -2.04831,4.15404 l -1.33213,0.54126 -0.22766,1.46196 -1.05052,0.33554 c -0.52412,0.57111 -0.8577,1.06949 -1.00074,1.49515 -0.52963,0.44226 -1.35834,1.05872 -2.48611,1.84935 -0.60374,0.21955 -1.48629,0.70924 -2.64765,1.46905 -0.95806,0.23476 -1.50151,0.3549 -1.63032,0.36044 -0.19329,0.008 -0.5574,-0.0164 -1.09233,-0.0741 -0.53495,-0.0577 -0.94668,-0.0642 -1.23518,-0.0195 l -1.7809,-0.89165 -1.01612,-1.11811 -0.37704,-2.01686 c -1.6588,1.20069 -2.96742,2.28953 -3.92584,3.26654 l -1.73941,0.0747 -1.71036,0.75112 c -2.00915,-0.94639 -3.94093,-1.21842 -5.79534,-0.81609 l -0.31895,-0.66398 -2.17158,-0.97169 -0.0622,-1.44951 -1.12106,-1.30724 -0.0166,-0.38653 c 10e-4,-2.22672 0.15171,-4.73415 0.45152,-7.52231 l -0.3314,-0.95388 0.73987,-0.80627 -0.029,-0.67643 0.75648,-0.41973 0.23181,-1.36531 1.40387,-1.12522 c 0.5806,-1.50936 1.26336,-2.89403 2.04831,-4.15405 0.62208,-0.54301 1.57409,-1.29384 2.85604,-2.25248 l 0.6225,-1.28529 1.7394,-0.0747 1.03393,-0.72209 c 1.17798,-0.37326 3.06876,-0.68034 5.67234,-0.92123 l 0.24306,1.1513 1.16791,0.14346 0.0166,0.38654 0.38653,-0.0166 0.31895,0.66399 0.38653,-0.0166 0.0166,0.38654 c -0.50019,0.37648 -1.34756,0.55808 -2.54212,0.5448 -1.87241,-0.0164 -2.79252,-0.0253 -2.76029,-0.0267 -0.78356,1.29222 -1.95088,2.66544 -3.50196,4.11966 l 0.0456,1.06297 -0.34504,0.98293 -1.04637,0.43217 0.30649,0.37409 0.0125,0.28991 c -0.16147,0.74916 -0.24289,1.10764 -0.24426,1.07542 l -0.38654,0.0166 c 0.0364,0.0952 -0.0661,0.7128 -0.30771,1.85263 l -0.66398,0.31895 0.45707,1.62616 -0.22766,1.46196 -0.73366,0.95121 c -0.48812,1.40861 -0.69968,2.86987 -0.63467,4.38379 l 0.7111,1.90571 0.40313,0.36993 1.07543,0.24426 0.66398,-0.31895 c 0.57979,-0.0248 1.02937,-0.0764 1.34872,-0.15469 l 0.84895,-0.52052 c 0.48455,0.0115 1.30475,-0.42713 2.46062,-1.3158 1.46689,-1.16018 2.24797,-1.75844 2.34323,-1.79482 0.7122,-1.45047 1.18718,-3.16508 1.42494,-5.14379 l 0.6308,-1.09202 c 0.0229,-0.9691 0.18645,-2.42826 0.48973,-4.37757 l 1.10567,-1.30602 -0.43218,-1.04637 c -0.0788,-1.83602 0.21464,-3.26853 0.88041,-4.29753 l -0.029,-0.67643 0.38654,-0.0166 c 0.54975,-1.47577 0.72959,-2.54842 0.53952,-3.21796 0.58155,-0.73491 0.96295,-1.62258 1.1442,-2.66306 l 1.30101,-1.266 0.29941,-2.04591 1.00074,-1.49514 c -0.17314,-1.02519 -0.26938,-1.76329 -0.28871,-2.21428 -0.0305,-0.70862 0.12248,-1.65105 0.45948,-2.82727 0.64184,-0.83429 1.31541,-2.05723 2.02074,-3.66882 0.76139,-1.80752 1.35444,-3.02699 1.77915,-3.65842 0.68926,-0.48133 1.62102,-1.32811 2.79529,-2.54032 l 1.43706,-0.35213 1.20436,-1.26187 1.2604,0.0427 1.02562,-0.91535 c 0.5503,0.0412 1.3595,-0.0906 2.42755,-0.39467 1.06797,-0.30396 1.82745,-0.46566 2.27846,-0.48507 2.448,-0.10506 4.57444,0.19088 6.3793,0.88783 2.0504,-0.34614 3.58686,-0.63801 4.60937,-0.8756 l 1.1086,1.01733 z"
             style="fill:#ff5555"
             id="path2996"
             inkscape:connector-curvature="0" />
          <path
             d="m 359.20763,545.49693 -0.0937,2.32751 -1.19547,0.34177 c -0.23105,-0.11915 -1.16793,-0.14346 -2.81068,-0.0729 -0.57982,0.0249 -1.33036,-0.16874 -2.25161,-0.581 -0.68851,-1.00308 -1.2357,-1.7218 -1.64158,-2.15619 l -1.47439,-0.51756 c -0.87289,0.71517 -1.51337,1.58172 -1.92144,2.5996 l -0.13515,1.36117 -1.03392,0.72209 -0.98829,1.78505 0.15056,1.25207 -0.3326,1.27284 -0.8531,0.42388 0.1547,1.34873 -1.01526,1.15693 c -0.0858,1.0041 -0.37352,1.82319 -0.86261,2.45733 l -1.04638,0.43217 -0.1393,1.26454 0.2306,0.8614 -0.3243,1.4661 -0.63494,0.99539 -0.23182,1.36533 -1.18985,1.60007 c -1.14855,0.30748 -1.99247,0.56961 -2.53175,0.78639 -0.69857,-0.48633 -1.67597,-0.70253 -2.9322,-0.6486 -0.28991,0.0125 -0.85544,0.18194 -1.69658,0.5085 -0.84115,0.32656 -1.42417,0.46453 -1.74905,0.41394 l -0.52465,-0.94559 0.0468,-1.16376 c 0.52962,-0.44225 1.27226,-1.18409 2.22793,-2.22551 -0.21085,-1.15269 -0.12216,-2.09234 0.26624,-2.81897 l 0.38655,-0.0166 0.15593,-0.87799 0.47486,-0.21403 0.25256,-0.88214 0.38654,-0.0166 0.60175,-1.76845 c 0.36577,-0.49976 0.98304,-1.15553 1.85176,-1.96735 -0.0291,-0.67641 0.38319,-1.5977 1.2367,-2.76382 l -0.0498,-1.15961 c 0.78948,-1.90557 1.06406,-3.40182 0.82379,-4.48871 l -0.78284,-1.32176 -0.97879,-0.24841 c -0.38377,0.081 -0.9944,0.13949 -1.83189,0.17544 l -1.03393,0.72208 -1.08786,-0.53415 -1.05467,0.2389 -0.39898,-0.2733 -1.35287,0.0581 -0.0332,-0.77306 c 0.45413,-0.69716 1.14341,-1.17854 2.06786,-1.44416 l 0.97048,0.0552 c 0.6124,-0.76849 1.55662,-1.32537 2.83262,-1.67062 l 1.35288,-0.0581 0.37409,-0.30651 1.50611,0.12896 c 0.48315,-0.0207 1.26909,-0.50625 2.35776,-1.4566 0.94932,0.31425 1.7712,0.66621 2.46563,1.05587 0.61575,0.81263 0.99911,1.47385 1.1501,1.98368 l 0.0166,0.38653 0.8436,1.60958 0.28991,-0.0125 c 0.4711,-1.05286 1.21326,-2.18193 2.22646,-3.3872 1.1995,-1.37457 2.2776,-2.19535 3.23428,-2.46235 l 1.07956,0.34089 0.71793,0.9373 c 0.85268,0.31839 1.51903,0.80611 1.99907,1.46315 l 0.0331,0.77306 1.31017,1.20231 1.36947,0.32845 0.0125,0.2899 z"
             style="fill:#ff5555"
             id="path2998"
             inkscape:connector-curvature="0" />
          <path
             d="m 395.79687,538.60125 -0.35748,0.69304 -0.65985,0.41557 0.0166,0.38654 -2.78992,0.41023 -0.35335,0.78966 0.0415,0.96634 -0.27331,0.39898 0.0456,1.06298 -0.38654,0.0166 0.0166,0.38654 -0.55076,0.70133 -0.15593,0.87799 -0.74817,0.613 0.31894,0.66399 c -0.2678,0.52785 -0.62065,1.70474 -1.05855,3.53068 l -1.37483,1.80164 0.38654,-0.0166 0.0166,0.38653 c -1.03256,0.7543 -1.83894,1.51502 -2.41911,2.28214 l -0.16837,0.58811 0.21401,0.47486 -0.24941,3.20553 -0.28991,0.0125 0.029,0.67642 -0.63078,1.09203 0.31894,0.66398 1.07541,0.24426 c 0.79737,-0.97008 2.06734,-1.83138 3.80994,-2.58389 l 0.62544,1.03809 -0.83917,1.87545 c -1.37861,0.96277 -2.52064,2.17355 -3.42609,3.63234 -1.90919,0.63057 -3.18795,0.91136 -3.8363,0.84239 l -0.0125,-0.2899 -1.06298,0.0456 c -0.64383,-0.71458 -1.37876,-1.29616 -2.20477,-1.74476 0.0326,-0.74362 -0.10834,-1.77023 -0.42267,-3.07983 l -0.80627,-0.73988 -0.2899,0.0125 c -1.42778,1.31987 -2.22518,2.28995 -2.39215,2.91026 l -1.72281,0.46121 -0.63079,1.09202 -1.99612,0.86021 -1.22452,-0.33468 -1.1513,0.24306 c -1.22364,-0.68968 -2.27238,-1.06416 -3.14622,-1.12346 l -1.39851,-1.00488 c -1.06039,-2.14888 -1.61132,-3.70648 -1.65282,-4.67282 -0.0222,-0.51537 0.079,-1.16513 0.30355,-1.94927 l 0.2899,-0.0125 c 0.1417,-0.45786 0.33191,-1.28892 0.57064,-2.4932 l -0.32309,-0.76063 -0.0166,-0.38653 c -0.0138,-0.3221 0.16743,-0.7978 0.5438,-1.42712 0.37637,-0.62929 0.57372,-1.10569 0.59211,-1.4292 1.87459,-1.43583 2.94844,-3.48272 3.22158,-6.14065 0.65706,-0.47998 1.1678,-0.98597 1.53221,-1.51797 1.143,-0.4363 1.96666,-0.79437 2.47098,-1.07422 l 0.38654,-0.0166 c 0.67268,-0.8679 1.44753,-1.61113 2.32456,-2.22967 l 0.35334,-0.78967 3.14328,-1.19989 2.81897,0.26624 1.09201,0.63079 1.35287,-0.0581 1.39141,-1.41511 1.35288,-0.0581 1.86508,0.59759 1.3846,-0.44669 0.78967,0.35334 0.31893,0.66399 2.50004,-0.39778 1.02978,-0.8187 0.69303,0.35748 1.04638,-0.43217 c 0.30231,0.27747 0.54853,0.75097 0.73866,1.42045 z m -10.90568,1.92044 -2.15913,-0.68179 c -1.27326,0.40967 -2.42734,0.5883 -3.46223,0.5359 l -2.46683,1.17085 -1.29478,1.41096 c -0.0745,0.51956 -0.57988,2.09024 -1.51609,4.71206 -0.93624,2.62187 -1.49822,4.00137 -1.68593,4.13849 l -0.14762,1.07128 -0.92899,0.91119 -0.16423,0.68474 0.22232,0.66813 -0.99867,1.54346 0.0539,1.25625 -0.55491,0.60469 0.0415,0.96634 -0.35748,0.69303 0.0166,0.38653 -0.99805,0.43011 0.0581,1.35287 0.3065,0.37408 1.52687,0.61213 c 0.76199,-0.29088 1.89118,-1.04932 3.38752,-2.27531 l 0.38655,-0.0166 1.03392,-0.72209 c 0.33219,-0.53059 0.88155,-1.26413 1.64812,-2.20062 l -0.0125,-0.28991 0.65984,-0.41557 c 0.65331,-1.31888 1.63537,-3.24887 2.94619,-5.79 l -0.0166,-0.38653 1.01733,-1.10862 c 0.051,-1.06709 0.41994,-2.24468 1.10687,-3.53274 -0.0741,-0.2227 -0.004,-0.83886 0.21109,-1.84849 l 0.76061,-0.3231 -0.0166,-0.38654 -0.20987,-0.37824 c 0.17389,-0.45923 0.49916,-1.15087 0.97585,-2.07494 l 0.2899,-0.0125 z"
             style="fill:#ff5555"
             id="path3000"
             inkscape:connector-curvature="0" />
          <path
             d="m 425.11181,542.66721 -0.0937,2.32751 -1.19547,0.34177 c -0.23105,-0.11914 -1.16794,-0.14347 -2.81068,-0.0729 -0.57984,0.0249 -1.33037,-0.16875 -2.25162,-0.58101 -0.68851,-1.00308 -1.23569,-1.72181 -1.64157,-2.15618 l -1.4744,-0.51758 c -0.87289,0.71519 -1.51337,1.58172 -1.92143,2.59961 l -0.13515,1.36118 -1.03393,0.72207 -0.98828,1.78505 0.15055,1.25209 -0.33259,1.27284 -0.85312,0.42387 0.15471,1.34873 -1.01527,1.15692 c -0.0858,1.00411 -0.3735,1.82321 -0.86259,2.45734 l -1.04638,0.43217 -0.13931,1.26455 0.23062,0.8614 -0.32431,1.4661 -0.63493,0.99538 -0.23182,1.36532 -1.18986,1.60007 c -1.14855,0.30748 -1.99246,0.56962 -2.53174,0.78639 -0.69858,-0.48633 -1.67597,-0.70253 -2.9322,-0.64859 -0.28992,0.0125 -0.85544,0.18195 -1.69659,0.5085 -0.84115,0.32655 -1.42416,0.46453 -1.74904,0.41394 l -0.52467,-0.94559 0.0468,-1.16375 c 0.5296,-0.44226 1.27224,-1.1841 2.22792,-2.22553 -0.21085,-1.15268 -0.12207,-2.09234 0.26624,-2.81897 l 0.38655,-0.0166 0.15593,-0.87799 0.47486,-0.21402 0.25256,-0.88215 0.38654,-0.0166 0.60174,-1.76846 c 0.36579,-0.49975 0.98304,-1.15553 1.85178,-1.96733 -0.029,-0.67642 0.38317,-1.5977 1.2367,-2.76383 l -0.0498,-1.15962 c 0.78947,-1.90556 1.06406,-3.4018 0.82378,-4.48871 l -0.78284,-1.32175 -0.97878,-0.24841 c -0.38377,0.081 -0.99441,0.13948 -1.8319,0.17544 l -1.03393,0.72208 -1.08786,-0.53415 -1.05467,0.2389 -0.39898,-0.27331 -1.35287,0.0581 -0.0332,-0.77307 c 0.45414,-0.69714 1.14341,-1.17854 2.06786,-1.44415 l 0.97048,0.0552 c 0.6124,-0.7685 1.55662,-1.32537 2.83262,-1.67062 l 1.35287,-0.0581 0.37408,-0.3065 1.50614,0.12897 c 0.48315,-0.0207 1.26907,-0.50626 2.35776,-1.45661 0.94932,0.31425 1.77119,0.6662 2.46561,1.05588 0.61576,0.81262 0.99912,1.47384 1.15011,1.98366 l 0.0166,0.38654 0.84362,1.60959 0.2899,-0.0125 c 0.4711,-1.05287 1.21326,-2.18194 2.22645,-3.3872 1.19952,-1.37459 2.27761,-2.19537 3.2343,-2.46236 l 1.07956,0.34089 0.71792,0.93729 c 0.85268,0.31839 1.51903,0.80612 1.99907,1.46316 l 0.0331,0.77307 1.31018,1.20229 1.36946,0.32845 0.0125,0.28991 z"
             style="fill:#ff5555"
             id="path3002"
             inkscape:connector-curvature="0" />
          <path
             d="m 453.20468,541.94505 -0.36994,0.40314 -0.051,1.06711 0.42802,0.94973 -0.33675,1.17621 0.25551,1.44121 c -0.73062,1.77399 -1.48611,2.96817 -2.26647,3.58254 -0.0644,0.003 -0.30396,0.0615 -0.71852,0.17606 -0.41463,0.1146 -0.65414,0.17333 -0.71854,0.17607 -0.0644,0.003 -0.77728,-0.063 -2.13839,-0.19862 l -0.69303,-0.35749 c -0.76894,0.12981 -2.50893,0.003 -5.21999,-0.38094 -2.71109,-0.38377 -4.54199,-0.74888 -5.4927,-1.09532 l -1.18303,0.63167 c -0.0897,0.16521 -0.36714,1.0323 -0.83222,2.60125 -0.46511,1.56896 -0.69489,2.41787 -0.68936,2.5467 0.0125,0.28992 0.0465,0.70797 0.10229,1.25417 0.0557,0.54621 0.0899,0.96426 0.1023,1.25415 l 1.57813,2.93342 c 0.91573,0.28338 1.45413,0.42162 1.6152,0.4147 0.0966,-0.004 0.19257,-0.0244 0.28782,-0.0608 0.0952,-0.0363 0.19118,-0.0566 0.28783,-0.0608 l 2.91145,0.16546 c 0.73255,-0.22508 1.55344,-0.64757 2.46268,-1.26749 1.12779,-0.79063 1.88149,-1.27479 2.26113,-1.45244 l 0.67229,-0.12565 c 0.71732,-0.5794 1.26808,-1.28073 1.65228,-2.104 l 2.0044,-0.66693 0.43219,1.04638 c -0.1265,0.8122 -1.71575,2.88121 -4.76772,6.20704 -1.04086,0.56102 -2.52416,0.96355 -4.44989,1.20759 -2.11905,0.25233 -3.60649,0.55823 -4.46235,0.91769 l -2.19085,-0.29318 -0.30235,-0.27745 -1.75602,-0.31185 c -1.68979,-1.02465 -3.31615,-2.82651 -4.87906,-5.4056 -0.0976,-0.77031 -0.29878,-1.6975 -0.6035,-2.78163 0.1362,-0.58671 0.30978,-1.80431 0.52084,-3.65281 l 0.36994,-0.40312 -0.20571,-0.28161 0.64739,-0.70548 0.32431,-1.4661 c 0.53236,-0.37783 0.95289,-1.10584 1.26158,-2.18403 l -0.13692,-3.18892 0.76062,-0.32309 0.56856,-2.54152 c 2.23385,-2.8389 4.65415,-4.7177 7.26091,-5.63641 0.16105,-0.007 0.40332,-10e-4 0.72682,0.0173 0.3235,0.0183 0.56576,0.0241 0.72683,0.0173 0.92304,-0.29777 1.36846,-0.44598 1.33628,-0.44462 l 1.18034,0.43338 c 0.38377,-0.0809 0.92443,-0.26557 1.62203,-0.55371 0.48453,0.0115 1.20077,0.15828 2.14876,0.4402 0.94793,0.28204 1.66419,0.42877 2.14876,0.44021 l 1.01199,1.02148 0.98293,0.34504 0.51221,0.65569 1.37777,0.52171 0.81041,0.83652 c 0.17624,0.34742 0.3615,0.90421 0.55577,1.67034 0.19423,0.76617 0.37949,1.32295 0.55578,1.67034 z m -5.45834,1.39611 -0.40313,-0.36994 c -0.0498,-1.15959 -0.11939,-2.0279 -0.20863,-2.60497 -0.41976,-0.75645 -1.69495,-1.89571 -3.82561,-3.41778 -1.22404,0.0526 -2.78579,0.50689 -4.68526,1.36292 l -0.44998,0.79382 -0.8448,0.61714 -0.34919,0.88631 -0.27746,0.30235 0.0332,0.77305 -0.55906,0.50807 c -0.17667,0.39485 -0.31007,1.04599 -0.40018,1.95343 l -0.38653,0.0166 -0.0595,0.87382 0.33968,1.14716 c 2.04136,0.94503 5.64446,1.43574 10.80934,1.47212 0.21478,-1.00959 0.54283,-1.63681 0.98413,-1.88168 z"
             style="fill:#ff5555"
             id="path3004"
             inkscape:connector-curvature="0" />
          <path
             d="m 491.95037,536.7962 -0.27331,0.39899 0.0768,1.78772 -0.36994,0.40314 -0.69631,1.8209 0.31894,0.664 -0.36993,0.40313 c -0.0645,0.74507 -0.26219,1.78616 -0.59198,3.1234 l 0.21401,0.47487 c -0.60691,0.89738 -1.30786,2.23443 -2.10284,4.01116 -0.82036,1.9392 -1.21391,3.29533 -1.18069,4.0684 l -0.67911,1.09408 0.25342,1.39289 c 1.373,-1.09161 2.39241,-2.1519 3.05821,-3.18088 l 1.23342,-0.58543 1.51442,0.32223 c -0.0998,0.68198 -0.65426,1.6739 -1.66324,2.97577 -1.16183,1.50206 -1.90467,2.61502 -2.22853,3.33888 l -0.65777,0.46389 0.0125,0.28991 -2.30321,1.59947 c -1.06715,-0.051 -2.31677,-0.59434 -3.74885,-1.63006 -0.17352,-0.28298 -0.55985,-0.63751 -1.15899,-1.06356 l -0.52881,-1.04223 -0.0477,-1.11128 -0.41558,-0.65985 0.25463,-0.83382 c -0.0949,-0.70588 -0.14225,-1.05883 -0.14225,-1.05883 -0.0581,-1.35286 0.54443,-3.29077 1.80763,-5.81372 1.26314,-2.52292 1.80562,-4.73254 1.6274,-6.62888 0.59441,-1.18724 1.00063,-2.62458 1.21863,-4.31204 l -1.03124,-0.34297 -0.36995,0.40313 0.0125,0.2899 -2.10995,1.59118 0.0166,0.38653 -1.38875,0.35008 0.0166,0.38653 c -1.04777,0.39999 -1.75247,0.89817 -2.11409,1.49455 l 0.0332,0.77306 c -0.40632,0.3079 -1.24955,0.58614 -2.52968,0.83471 l 0.0291,0.67644 -0.67644,0.029 -0.32162,0.40105 -0.38654,0.0166 -0.35748,0.69304 0.0353,0.82138 -1.05052,0.33554 0.029,0.67643 -0.48377,1.13412 -0.024,1.69523 c -0.39248,0.63001 -0.73649,1.63709 -1.03202,3.02127 -0.29556,1.38421 -0.62346,2.39061 -0.98369,3.01921 -0.59545,0.41282 -1.19382,1.13233 -1.79516,2.15854 -0.69108,1.19141 -1.22228,1.97258 -1.59359,2.3435 -1.14855,0.30748 -2.90356,0.77008 -5.26507,1.38781 l -1.22865,-0.43131 -1.67035,0.55578 -1.88998,-1.1774 -0.9023,-1.84909 0.31394,-1.70769 1.09468,-0.43424 c 1.01929,0.44029 1.86005,0.85598 2.52226,1.24707 l 1.77526,-0.36667 1.17473,-0.82493 0.20075,-2.09007 0.37408,-0.3065 c -0.082,-1.15822 0.003,-2.19451 0.25387,-3.10887 0.44443,-0.92264 1.0775,-2.33746 1.8992,-4.24446 0.25572,-1.55995 0.88297,-3.86196 1.88175,-6.90603 l -0.33762,-1.09884 0.25671,-0.78551 -0.70549,-0.6474 -1.09468,0.43426 0.0125,0.2899 -1.43291,0.44877 -0.98561,0.72 c -1.43984,0.28773 -2.65211,0.61409 -3.63681,0.97906 l -1.823,-0.74463 -0.43217,-1.04637 0.35749,-0.69303 c 3.41715,-0.0822 6.97778,-1.33225 10.68191,-3.75026 l 0.77306,-0.0332 2.29491,-1.79275 1.19963,-0.24512 1.08372,0.43752 c 1.47951,1.38868 2.12658,2.55491 1.94124,3.49869 l -0.65984,0.41558 0.0311,0.72476 -0.67911,1.0941 c 0.0755,0.25494 0.0311,0.72477 -0.13312,1.40948 l 0.22646,0.76477 0.74135,0.35541 c 1.20602,-0.47128 2.49557,-1.25273 3.86863,-2.34437 l -0.0166,-0.38653 0.38654,-0.0166 0.93729,-0.71793 0.43484,-0.0186 1.02771,-0.86704 0.35749,-0.69303 1.38874,-0.35006 -0.0166,-0.38653 c 0.94418,-0.55685 1.78188,-0.96392 2.51308,-1.22125 l 0.27331,-0.39899 0.82138,-0.0353 c 0.94971,-0.428 1.6544,-0.92617 2.11409,-1.49455 l 1.06297,-0.0456 0.32103,0.71232 0.43485,-0.0187 c 0.5766,0.65296 1.06835,1.58383 1.47526,2.79261 z"
             style="fill:#ff5555"
             id="path3006"
             inkscape:connector-curvature="0" />
        </g>
        <path
           inkscape:connector-curvature="0"
           id="path5319"
           d="m 341.19319,532.00466 c -115.48361,0 -209.09375,25.95647 -209.09375,58 0,9.25851 7.81837,18.01599 21.71875,25.78125 51.73391,-14.04446 120.61721,-29.91081 183.5625,-35.15625 70.70969,-5.89247 149.04537,-6.52498 205.53125,-5.90625 -24.1899,-24.62164 -105.31635,-42.71875 -201.71875,-42.71875 z"
           style="opacity:0.31838565;fill:#ffffff;stroke:none;filter:url(#filter5353)" />
        <path
           transform="matrix(0.3463843,0,0,1.0856136,101.39393,316.25628)"
           d="m 473.76155,471.01938 a 183.84776,51.012703 0 1 1 -367.69553,0 183.84776,51.012703 0 1 1 367.69553,0 z"
           sodipodi:ry="51.012703"
           sodipodi:rx="183.84776"
           sodipodi:cy="471.01938"
           sodipodi:cx="289.91379"
           id="path5441"
           style="opacity:0.8699552;fill:#000000;filter:url(#filter5257)"
           sodipodi:type="arc"
           inkscape:export-filename="C:\Users\fonsan\Desktop\path5491.png"
           inkscape:export-xdpi="90"
           inkscape:export-ydpi="90" />
        <g
           id="g5443"
           transform="matrix(0.29633858,0,0,0.92876379,107.68888,317.92972)"
           inkscape:export-filename="C:\Users\fonsan\Desktop\path5491.png"
           inkscape:export-xdpi="90"
           inkscape:export-ydpi="90">
          <path
             transform="matrix(1.1373626,0,0,1.1373626,-18.105043,3.0435845)"
             d="m 473.76155,471.01938 c 0,28.17354 -82.31145,51.0127 -183.84776,51.0127 -101.53632,0 -183.84777,-22.83916 -183.84777,-51.0127 0,-28.17354 82.31145,-51.0127 183.84777,-51.0127 101.53631,0 183.84776,22.83916 183.84776,51.0127 z"
             sodipodi:ry="51.012703"
             sodipodi:rx="183.84776"
             sodipodi:cy="471.01938"
             sodipodi:cx="289.91379"
             id="path5445"
             style="opacity:0.50416667;fill:#0000ff"
             sodipodi:type="arc" />
          <path
             transform="matrix(1.1373626,0,0,1.1373626,-18.105043,3.0435845)"
             sodipodi:type="arc"
             style="fill:url(#radialGradient5514);fill-opacity:1"
             id="path5447"
             sodipodi:cx="289.91379"
             sodipodi:cy="471.01938"
             sodipodi:rx="183.84776"
             sodipodi:ry="51.012703"
             d="m 473.76155,471.01938 c 0,28.17354 -82.31145,51.0127 -183.84776,51.0127 -101.53632,0 -183.84777,-22.83916 -183.84777,-51.0127 0,-28.17354 82.31145,-51.0127 183.84777,-51.0127 101.53631,0 183.84776,22.83916 183.84776,51.0127 z" />
          <path
             d="m 473.76155,471.01938 c 0,28.17354 -82.31145,51.0127 -183.84776,51.0127 -101.53632,0 -183.84777,-22.83916 -183.84777,-51.0127 0,-28.17354 82.31145,-51.0127 183.84777,-51.0127 101.53631,0 183.84776,22.83916 183.84776,51.0127 z"
             sodipodi:ry="51.012703"
             sodipodi:rx="183.84776"
             sodipodi:cy="471.01938"
             sodipodi:cx="289.91379"
             id="path5449"
             style="fill:url(#radialGradient5516);fill-opacity:1"
             sodipodi:type="arc"
             transform="matrix(1.1373626,0,0,1.1373626,-18.105043,3.0435845)" />
        </g>
        <g
           id="g5524"
           transform="matrix(1.0997068,0,0,1.0997068,-260.55189,-72.358592)"
           inkscape:export-filename="C:\Users\fonsan\Desktop\path5491.png"
           inkscape:export-xdpi="90"
           inkscape:export-ydpi="90">
          <g
             style="fill:#000000"
             id="g5451"
             transform="matrix(0.91993455,0,0,0.91993455,389.47759,353.2864)">
            <path
               style="fill:#000000"
               inkscape:connector-curvature="0"
               id="path5453"
               d="m 80.773088,477.49894 -0.26085,0.6889 -1.79041,1.14179 -1.25951,2.23235 -0.28277,2.43244 -0.6308,1.09202 -0.30769,1.85263 -0.6474,0.70548 -0.31185,1.75601 -1.01733,1.10861 0.0291,0.67645 -1.31968,0.83115 -0.35748,0.69303 -1.04638,0.43217 -0.30918,0.69096 c -0.55498,0.60474 -1.37727,0.99503 -2.46683,1.17086 l -0.37408,0.3065 0.0166,0.38653 c -1.03084,0.0443 -2.32018,0.45463 -3.86803,1.23102 -1.26363,0.63515 -2.51107,1.26957 -3.74234,1.90329 l -4.54178,0.19501 -1.54079,-2.0637 -0.28991,0.0125 0.21525,-1.75185 -0.79677,-2.77334 c 0.36987,-0.40308 1.21353,-0.85883 2.53102,-1.36722 1.31733,-0.50832 2.22037,-0.70844 2.70915,-0.60039 l 0.72207,1.03393 -0.19445,2.23502 0.77601,2.29017 0.96634,-0.0415 c 1.54784,-0.77638 3.09507,-1.56891 4.6417,-2.37757 2.36458,-1.2955 3.70471,-2.40184 4.02039,-3.319 l 0.28991,-0.0125 c 0.54831,-1.50795 1.4703,-3.70967 2.76597,-6.60516 -0.0665,-1.54609 -0.29283,-3.81144 -0.67905,-6.79608 -1.30058,-0.97676 -2.88772,-1.48949 -4.76142,-1.53818 l -3.93708,0.74992 -0.65985,0.41558 -0.35749,0.69304 c -1.56044,0.48656 -2.89989,1.609 -4.01833,3.36732 l -0.76062,0.3231 0.0166,0.38653 c -1.39979,1.2219 -2.27789,2.56655 -2.63433,4.03399 l -1.71036,0.75113 c -0.6852,0.57806 -1.72832,1.46188 -3.12935,2.65147 -0.42752,0.567 -1.10159,1.4027 -2.02221,2.50712 l -5.34751,6.23195 c -0.60833,0.86519 -1.49681,1.96825 -2.66546,3.30923 l -2.12594,0.0913 -1.42046,0.73867 -0.59553,1.91341 0.43218,1.04637 -1.42047,0.73867 c -0.33817,1.14402 -1.01797,2.22201 -2.03941,3.23396 -0.8996,0.84541 -1.79845,1.70691 -2.69657,2.58448 -0.46978,1.08513 -1.56854,2.5522 -3.29625,4.40125 l -0.77306,0.0332 c -1.27823,1.79753 -2.5831,3.72525 -3.9146,5.78317 l -2.20184,0.5786 -1.29893,1.31433 -0.95302,2.60643 c -0.46522,0.4395 -1.0146,1.17305 -1.64812,2.20063 -0.63359,1.02759 -1.18297,1.76113 -1.64813,2.20062 l -0.34089,1.07957 -0.38654,0.0166 -0.24426,1.07541 -1.40386,1.12522 -0.59198,3.12339 c -0.3755,0.27428 -1.78727,0.46399 -4.2352903,0.5691 -0.61894,-0.13481 -0.9788,-0.24841 -1.07957,-0.3409 l 0.9883,-1.78504 -0.0456,-1.06297 c -0.7561,-0.32252 -1.72065,-0.99106 -2.89366,-2.00562 l -0.0581,-1.35287 c 1.94728,-1.24535 3.56514,-1.89568 4.85362,-1.95102 0.8769903,-0.61852 1.4208403,-1.48089 1.6315403,-2.58716 l -0.029,-0.67643 c 1.30011,-3.54103 1.92736,-5.84305 1.88175,-6.90603 -0.003,-0.0644 -0.15895,-1.44534 -0.46832,-4.1428 l 0.87506,-2.16744 c 0.13515,-1.36115 0.18787,-3.13828 0.15833,-5.33144 l 0.66399,-0.31895 c 0.7936,-1.80893 1.20969,-3.39191 1.24827,-4.74897 l -0.47782,-2.10934 -1.10861,-1.01733 c 0.7936,-1.80894 1.25682,-3.79732 1.38967,-5.9652 l 1.65228,-2.104 1.50879,-0.93608 c -0.2514,-1.34453 -0.37845,-2.04903 -0.38118,-2.11349 -0.008,-0.19323 0.063,-0.77722 0.21525,-1.75186 l 1.57223,-1.7133 0.76806,-2.40488 2.3453,-1.74649 -0.75112,-1.71037 -0.2899,0.0125 -0.12448,-2.89901 c 0.21893,-0.91292 0.49677,-1.95751 0.83357,-3.13378 -1.92027,0.37295 -4.34343,1.05787 -7.26948,2.05475 l 0.0166,0.38654 -2.09689,0.76771 -3.5437203,-0.23511 c -1.26636,0.57075 -2.15721,0.86717 -2.67256,0.88924 -3.15672,0.1356 -5.55141,-0.0198 -7.18408,-0.46607 l -0.75647,0.41973 -3.86535,0.16596 c -1.19182,0.0512 -2.8595,-0.45804 -5.003,-1.5278 l -1.2150197,-2.36813 0.15299,-3.20135 c 0.75964,-1.09748 2.1837597,-2.12675 4.2723697,-3.0878 l 0.2733,-0.39899 c 2.34905,-0.90755 4.80994,-1.465 7.38271,-1.67235 l 0.64532,-0.75379 c 1.80339,0.66486 3.59092,0.95921 5.36257,0.88308 0.32208,-0.0138 0.78707,-0.0821 1.39496,-0.20512 0.60784,-0.12289 1.08893,-0.1919 1.44328,-0.20718 0.2576603,-0.011 1.5544103,0.12693 3.8902503,0.41384 l 1.69999,-0.99272 c 1.00226,0.79607 3.24765,1.23213 6.73618,1.30816 l 1.09617,0.72744 c 0.92579,-0.23331 2.12728,-0.059 3.60449,0.52292 l 2.21722,2.03466 c 0.99297,-0.17165 2.02531,-0.55482 3.09703,-1.1495 1.85892,-1.04787 2.80381,-1.58865 2.83469,-1.62229 0.94831,-0.46018 2.27263,-0.80748 3.97297,-1.0419 2.24505,-0.32223 3.6071,-0.54206 4.08618,-0.65951 0.66531,-0.28667 1.68086,-0.68525 3.04664,-1.19575 -0.0967,0.004 0.50909,-0.16701 1.81737,-0.51368 0.41868,-0.0179 1.01735,0.021 1.79602,0.11649 0.93959,0.0888 1.52285,0.14442 1.74978,0.16693 l 1.49514,1.00074 1.4898,3.13081 -0.61835,1.38192 c -2.33035,-0.158 -3.30221,-0.24536 -2.9156,-0.26208 0.48309,-0.0207 -0.42939,0.14759 -2.73747,0.5048 l -2.20063,-1.64813 c -1.03636,-0.0843 -1.8444,-0.11436 -2.42414,-0.0895 -0.41879,0.018 -1.16287,0.16294 -2.23221,0.43469 -1.06945,0.27188 -1.86321,0.38664 -2.38131,0.34428 l -0.37409,0.3065 c -2.48071,0.84879 -5.16156,1.54478 -8.04254,2.08792 l 0.0332,0.77308 c 0.0332,0.77312 0.42333,1.78097 1.17055,3.0235 0.74712,1.24268 1.15134,2.20151 1.21264,2.8765 -0.51445,0.79664 -1.63068,2.23221 -3.34871,4.3067 -1.17135,3.53556 -1.62322,6.54 -1.35562,9.0133 -0.63222,1.05985 -1.28555,2.37873 -1.95998,3.95663 l 0.73453,1.32383 0.12033,2.80238 -0.6142,1.47854 0.0166,0.38654 -0.38653,0.0166 c -0.4196,1.50249 -0.94961,2.68699 -1.59004,3.5535 l 0.38326,2.16181 -0.27331,0.39898 0.0581,1.35287 -0.97169,2.17158 -0.38654,0.0166 c -1.72624,4.14024 -3.33009,7.37162 -4.8116,9.69416 l -0.3077,1.85264 c 0.33354,-0.49838 0.75822,-1.12975 1.27404,-1.89413 l 2.08445,-1.05763 -0.0166,-0.38653 c 0.69063,-0.44916 1.3569,-1.0909 1.99879,-1.92525 1.10286,-1.37043 1.66972,-2.07245 1.7006,-2.10607 0.43846,-0.30924 1.02973,-0.81868 1.7738,-1.52834 0.53687,-1.02342 1.51785,-2.22727 2.94291,-3.61158 1.04119,-1.30324 1.62367,-2.39318 1.74743,-3.26983 l 0.28991,-0.0125 c 0.37996,-0.91988 1.55212,-2.18034 3.51648,-3.78144 2.15199,-1.73817 3.45507,-2.95587 3.90925,-3.65308 0.3837,-0.081 0.75987,-0.33916 1.12848,-0.77454 0.58291,-0.70267 0.89051,-1.05472 0.92277,-1.05615 0.65702,-0.47996 1.3141,-0.95996 1.97123,-1.44 0.78171,-0.58213 1.2708,-1.21627 1.46729,-1.90243 l 0.65985,-0.41558 0.61835,-1.38191 c 0.34457,-0.24065 0.81253,-0.61572 1.40386,-1.12521 l 3.1003,-3.32791 0.24427,-1.07542 c 0.27876,-0.27008 0.74673,-0.64516 1.40386,-1.1252 0.65701,-0.47996 1.12496,-0.85503 1.40387,-1.12522 l 0.67643,-0.029 1.32176,-0.78285 0.65274,-2.83557 1.32382,-0.73452 -0.0166,-0.38654 c 1.4783,-1.64468 3.20081,-2.86424 5.16756,-3.6587 0.95104,-0.39576 2.96029,-0.94995 6.02776,-1.66259 0.38092,-0.14537 0.9377,-0.33063 1.67035,-0.55577 1.09647,-0.0147 2.73509,-0.1819 4.91586,-0.50151 l 1.76845,0.60175 3.04839,3.35434 0.0788,1.83604 z m -58.35512,-7.36921 -0.35214,-1.43706 -1.10861,-1.01733 c -2.48682,-0.79674 -4.50327,-1.16195 -6.04938,-1.09562 l -0.66399,0.31894 c -1.16794,-0.14336 -1.78409,-0.21375 -1.84849,-0.21108 -0.41878,0.018 -1.06091,0.094 -1.92645,0.22793 -0.8655803,0.13406 -1.5238303,0.21071 -1.9747603,0.23001 -0.96637,0.0416 -2.48054,-0.087 -4.54252,-0.38577 -2.06203,-0.29864 -3.59232,-0.42657 -4.59084,-0.38375 -0.78732,0.45338 -2.30581,1.16399 -4.55543,2.13183 l -1.858,1.82239 1.34752,2.07201 1.07542,0.24426 0.70963,0.74403 c 1.55442,0.12693 2.39606,0.18761 2.52493,0.18198 0.22546,-0.01 0.5777,-0.0732 1.05674,-0.19059 0.479,-0.11735 0.83125,-0.18084 1.05674,-0.19059 0.35431,-0.0151 0.87176,0.011 1.55237,0.0785 0.68057,0.0676 1.19802,0.0939 1.55237,0.0785 l 3.57545,-0.15352 c 0.32208,-0.0137 0.81123,-0.0832 1.46744,-0.20823 0.65615,-0.12496 1.11308,-0.19295 1.3708003,-0.20407 2.66659,-0.27579 4.38367,-0.49473 5.15124,-0.65684 1.66388,-0.32954 3.33076,-0.96585 5.00066,-1.90891 z" />
          </g>
          <path
             style="fill:#ff5555"
             inkscape:connector-curvature="0"
             id="path5473"
             d="m 462.7937,790.55418 -0.23996,0.63374 -1.64706,1.05037 -1.15867,2.05362 -0.26013,2.23769 -0.58029,1.00458 -0.28306,1.7043 -0.59556,0.649 -0.28689,1.61541 -0.93587,1.01985 0.0268,0.62229 -1.21402,0.7646 -0.32886,0.63754 -0.9626,0.39757 -0.28443,0.63564 c -0.51054,0.55632 -1.26699,0.91536 -2.26932,1.07712 l -0.34413,0.28195 0.0153,0.35559 c -0.9483,0.0408 -2.13441,0.41823 -3.55833,1.13246 -1.16246,0.58429 -2.31002,1.16792 -3.44271,1.7509 l -4.17815,0.17939 -1.41742,-1.89847 -0.2667,0.0115 0.19801,-1.61158 -0.73297,-2.55129 c 0.34025,-0.37081 1.11636,-0.79007 2.32837,-1.25776 1.21186,-0.46762 2.04259,-0.65172 2.49225,-0.55232 l 0.66426,0.95115 -0.17888,2.05607 0.71387,2.10681 0.88897,-0.0382 c 1.42392,-0.71422 2.84727,-1.44329 4.27006,-2.18721 2.17526,-1.19177 3.40809,-2.20953 3.6985,-3.05326 l 0.2667,-0.0115 c 0.50441,-1.38721 1.35258,-3.41265 2.54451,-6.07631 -0.0612,-1.42231 -0.26939,-3.50628 -0.62468,-6.25195 -1.19645,-0.89856 -2.65652,-1.37024 -4.3802,-1.41503 l -3.62185,0.68988 -0.60702,0.38231 -0.32887,0.63755 c -1.4355,0.4476 -2.66771,1.48017 -3.69661,3.09771 l -0.69972,0.29723 0.0153,0.35559 c -1.28771,1.12406 -2.09551,2.36105 -2.42341,3.711 l -1.57342,0.69099 c -0.63034,0.53178 -1.58994,1.34484 -2.8788,2.43918 -0.39329,0.5216 -1.01339,1.29039 -1.8603,2.30639 l -4.91936,5.73298 c -0.55962,0.79592 -1.37696,1.81066 -2.45205,3.04428 l -1.95572,0.084 -1.30673,0.67953 -0.54785,1.76021 0.39758,0.96259 -1.30674,0.67953 c -0.31109,1.05242 -0.93647,2.0441 -1.87612,2.97503 -0.82758,0.77772 -1.65446,1.57025 -2.48067,2.37755 -0.43217,0.99825 -1.44296,2.34786 -3.03234,4.04886 l -0.71116,0.0305 c -1.17589,1.65361 -2.37628,3.42698 -3.60118,5.32013 l -2.02555,0.53228 -1.19493,1.2091 -0.87671,2.39774 c -0.42797,0.40431 -0.93337,1.07913 -1.51617,2.02444 -0.58286,0.94531 -1.08825,1.62012 -1.51617,2.02442 l -0.31359,0.99314 -0.35559,0.0153 -0.22471,0.9893 -1.29146,1.03513 -0.54458,2.87332 c -0.34544,0.25232 -1.64417,0.42684 -3.89619,0.52353 -0.56938,-0.12401 -0.90043,-0.22852 -0.99313,-0.3136 l 0.90917,-1.64212 -0.0419,-0.97787 c -0.69556,-0.29669 -1.58289,-0.91171 -2.66198,-1.84504 l -0.0534,-1.24455 c 1.79137,-1.14564 3.2797,-1.7439 4.46501,-1.79481 0.80678,-0.569 1.30708,-1.36232 1.50091,-2.38002 l -0.0267,-0.62227 c 1.19602,-3.25751 1.77305,-5.37522 1.73109,-6.35309 -0.003,-0.0593 -0.14622,-1.32962 -0.43082,-3.81111 l 0.80499,-1.9939 c 0.12433,-1.25217 0.17283,-2.88701 0.14566,-4.90458 l 0.61082,-0.29341 c 0.73006,-1.6641 1.11284,-3.12033 1.14833,-4.36874 l -0.43965,-1.94043 -1.01985,-0.93587 c 0.73006,-1.66411 1.1562,-3.49329 1.27841,-5.4876 l 1.51999,-1.93554 1.38799,-0.86113 c -0.23127,-1.23688 -0.34815,-1.88497 -0.35066,-1.94427 -0.007,-0.17776 0.058,-0.71499 0.19801,-1.6116 l 1.44635,-1.57612 0.70657,-2.21234 2.15752,-1.60665 -0.69098,-1.57343 -0.26669,0.0115 -0.11451,-2.6669 c 0.2014,-0.83983 0.45699,-1.80078 0.76683,-2.88287 -1.76653,0.34309 -3.99568,0.97317 -6.68745,1.89023 l 0.0153,0.35559 -1.929,0.70625 -3.25999,-0.21629 c -1.16497,0.52505 -1.9845,0.79774 -2.45858,0.81804 -2.90398,0.12475 -5.10694,-0.0182 -6.60889,-0.42875 l -0.6959,0.38612 -3.55587,0.15268 c -1.0964,0.0471 -2.63055,-0.42137 -4.60243,-1.40548 l -1.11774,-2.17853 0.14074,-2.94503 c 0.69882,-1.00961 2.00892,-1.95647 3.9303,-2.84057 l 0.25142,-0.36705 c 2.16097,-0.83488 4.42483,-1.3477 6.79161,-1.53845 l 0.59365,-0.69344 c 1.659,0.61163 3.30341,0.88241 4.93321,0.81238 0.2963,-0.0127 0.72406,-0.0755 1.28328,-0.1887 0.55917,-0.11305 1.00174,-0.17653 1.32772,-0.19059 0.23703,-0.0101 1.42996,0.11677 3.57878,0.38071 l 1.56387,-0.91324 c 0.92202,0.73233 2.98763,1.13348 6.19685,1.20342 l 1.0084,0.6692 c 0.85167,-0.21463 1.95696,-0.0543 3.3159,0.48105 l 2.0397,1.87175 c 0.91346,-0.1579 1.86315,-0.51039 2.84906,-1.05746 1.71009,-0.96397 2.57932,-1.46145 2.60773,-1.4924 0.87238,-0.42334 2.09067,-0.74283 3.65487,-0.95848 2.0653,-0.29643 3.3183,-0.49866 3.75902,-0.60671 0.61204,-0.26371 1.54628,-0.63038 2.80271,-1.10001 -0.089,0.004 0.46833,-0.15364 1.67186,-0.47255 0.38516,-0.0165 0.9359,0.0193 1.65222,0.10716 0.86436,0.0817 1.40092,0.13286 1.60969,0.15357 l 1.37543,0.92061 1.37051,2.88014 -0.56884,1.27128 c -2.14377,-0.14535 -3.03781,-0.22572 -2.68216,-0.2411 0.44441,-0.019 -0.39501,0.13578 -2.51829,0.46438 l -2.02444,-1.51617 c -0.95338,-0.0775 -1.69672,-0.1052 -2.23005,-0.0823 -0.38526,0.0166 -1.06976,0.14989 -2.05348,0.39989 -0.98383,0.25011 -1.71404,0.35568 -2.19065,0.31671 l -0.34414,0.28196 c -2.28209,0.78083 -4.7483,1.4211 -7.39861,1.92075 l 0.0305,0.71118 c 0.0305,0.71122 0.38944,1.63838 1.07683,2.78143 0.6873,1.14318 1.05916,2.02524 1.11555,2.64619 -0.47326,0.73285 -1.50012,2.05348 -3.0806,3.96188 -1.07756,3.25248 -1.49325,6.01637 -1.24708,8.29165 -0.5816,0.97499 -1.18262,2.18827 -1.80305,3.63984 l 0.67572,1.21783 0.1107,2.57801 -0.56503,1.36016 0.0153,0.35559 -0.35558,0.0153 c -0.38601,1.38219 -0.87358,2.47186 -1.46273,3.26899 l 0.35257,1.98872 -0.25143,0.36704 0.0534,1.24455 -0.89389,1.99771 -0.35559,0.0153 c -1.58803,3.80875 -3.06347,6.78141 -4.42636,8.918 l -0.28306,1.7043 c 0.30683,-0.45847 0.69751,-1.03929 1.17203,-1.74247 l 1.91756,-0.97295 -0.0153,-0.35559 c 0.63533,-0.41319 1.24826,-1.00355 1.83876,-1.7711 1.01455,-1.26071 1.53603,-1.90652 1.56444,-1.93745 0.40335,-0.28448 0.94728,-0.75313 1.63178,-1.40597 0.49388,-0.94148 1.39632,-2.04894 2.70728,-3.32242 0.95783,-1.19889 1.49367,-2.20157 1.60752,-3.00803 l 0.2667,-0.0115 c 0.34954,-0.84622 1.42785,-2.00577 3.23493,-3.47867 1.97969,-1.59901 3.17844,-2.71921 3.59625,-3.3606 0.35298,-0.0745 0.69903,-0.312 1.03813,-0.71252 0.53624,-0.64641 0.81921,-0.97028 0.84889,-0.97159 0.60441,-0.44153 1.20889,-0.8831 1.8134,-1.32471 0.71912,-0.53552 1.16906,-1.11889 1.34981,-1.75011 l 0.60702,-0.38231 0.56884,-1.27126 c 0.31699,-0.22138 0.74748,-0.56642 1.29146,-1.03512 l 2.85208,-3.06146 0.22471,-0.98932 c 0.25644,-0.24845 0.68694,-0.5935 1.29146,-1.03511 0.6044,-0.44153 1.03489,-0.78657 1.29147,-1.03513 l 0.62227,-0.0267 1.21593,-0.72017 0.60048,-2.60854 1.21783,-0.67571 -0.0153,-0.3556 c 1.35994,-1.51299 2.94454,-2.63491 4.75382,-3.36576 0.8749,-0.36407 2.72328,-0.87389 5.54515,-1.52947 0.35042,-0.13373 0.86262,-0.30416 1.53661,-0.51128 1.00868,-0.0135 2.5161,-0.16733 4.52227,-0.46135 l 1.62686,0.55357 2.80432,3.08577 0.0725,1.68904 z m -53.6829,-6.77919 -0.32394,-1.322 -1.01985,-0.93588 c -2.28771,-0.73295 -4.14271,-1.06892 -5.56503,-1.0079 l -0.61083,0.2934 c -1.07443,-0.13188 -1.64125,-0.19663 -1.70049,-0.19417 -0.38525,0.0166 -0.97597,0.0865 -1.77221,0.20968 -0.79628,0.12332 -1.40182,0.19384 -1.81665,0.21159 -0.889,0.0383 -2.28193,-0.08 -4.17882,-0.35488 -1.89693,-0.27473 -3.3047,-0.39242 -4.22327,-0.35303 -0.72429,0.41708 -2.1212,1.0708 -4.1907,1.96115 l -1.70924,1.67648 1.23963,1.90611 0.98932,0.2247 0.65281,0.68446 c 1.42997,0.11677 2.20422,0.17259 2.32277,0.16741 0.20741,-0.009 0.53145,-0.0673 0.97213,-0.17533 0.44065,-0.10795 0.7647,-0.16636 0.97213,-0.17533 0.32595,-0.0139 0.80197,0.0101 1.42808,0.0722 0.62608,0.0622 1.1021,0.0864 1.42808,0.0722 l 3.28918,-0.14123 c 0.29629,-0.0126 0.74628,-0.0765 1.34995,-0.19156 0.60362,-0.11495 1.02396,-0.1775 1.26105,-0.18773 2.45309,-0.25371 4.03269,-0.45512 4.7388,-0.60425 1.53066,-0.30315 3.06408,-0.88852 4.60028,-1.75607 z" />
        </g>
        <path
           style="opacity:0.31838564;fill:#ffffff;stroke:none;filter:url(#filter5353)"
           d="m 354.32517,764.33973 c -115.4836,0 -209.09374,25.95647 -209.09374,58 0,9.25851 7.81837,18.01599 21.71875,25.78125 51.73391,-14.04446 120.61721,-29.91081 183.56249,-35.15625 70.70969,-5.89247 149.04537,-6.52498 205.53125,-5.90625 -24.1899,-24.62164 -105.31635,-42.71875 -201.71875,-42.71875 z"
           id="path5491"
           inkscape:connector-curvature="0"
           transform="matrix(0.29633858,0,0,0.92876379,93.841117,53.603074)"
           inkscape:export-xdpi="90"
           inkscape:export-ydpi="90" />
      </g>
    </g>
  </g>
</svg>
